  0
SECTION
  2
HEADER
  9
$ACADVER
  1
AC1015
  9
$ACADMAINTVER
 70
     6
  9
$DWGCODEPAGE
  3
ANSI_1252
  9
$INSBASE
 10
0.0
 20
0.0
 30
0.0
  9
$EXTMIN
 10
-177.4613048294
 20
-43.2613177691
 30
0.0
  9
$EXTMAX
 10
209.132603089
 20
198.5732180014
 30
0.0
  9
$LIMMIN
 10
0.0
 20
0.0
  9
$LIMMAX
 10
420.0
 20
297.0
  9
$ORTHOMODE
 70
     0
  9
$REGENMODE
 70
     1
  9
$FILLMODE
 70
     1
  9
$QTEXTMODE
 70
     0
  9
$MIRRTEXT
 70
     1
  9
$LTSCALE
 40
1.0
  9
$ATTMODE
 70
     1
  9
$TEXTSIZE
 40
3.5
  9
$TRACEWID
 40
1.0
  9
$TEXTSTYLE
  7
Standard
  9
$CLAYER
  8
0
  9
$CELTYPE
  6
ByLayer
  9
$CECOLOR
 62
   256
  9
$CELTSCALE
 40
1.0
  9
$DISPSILH
 70
     0
  9
$DIMSCALE
 40
1.0
  9
$DIMASZ
 40
3.302
  9
$DIMEXO
 40
0.0
  9
$DIMDLI
 40
3.75
  9
$DIMRND
 40
0.0
  9
$DIMDLE
 40
0.0
  9
$DIMEXE
 40
1.0
  9
$DIMTP
 40
0.0
  9
$DIMTM
 40
0.0
  9
$DIMTXT
 40
3.5
  9
$DIMCEN
 40
2.5
  9
$DIMTSZ
 40
0.0
  9
$DIMTOL
 70
     0
  9
$DIMLIM
 70
     0
  9
$DIMTIH
 70
     1
  9
$DIMTOH
 70
     1
  9
$DIMSE1
 70
     0
  9
$DIMSE2
 70
     0
  9
$DIMTAD
 70
     1
  9
$DIMZIN
 70
     1
  9
$DIMBLK
  1

  9
$DIMASO
 70
     1
  9
$DIMSHO
 70
     1
  9
$DIMPOST
  1

  9
$DIMAPOST
  1

  9
$DIMALT
 70
     0
  9
$DIMALTD
 70
     3
  9
$DIMALTF
 40
0.0393700787
  9
$DIMLFAC
 40
1.0
  9
$DIMTOFL
 70
     1
  9
$DIMTVP
 40
0.0
  9
$DIMTIX
 70
     0
  9
$DIMSOXD
 70
     0
  9
$DIMSAH
 70
     0
  9
$DIMBLK1
  1

  9
$DIMBLK2
  1

  9
$DIMSTYLE
  2
ISO-25
  9
$DIMCLRD
 70
     0
  9
$DIMCLRE
 70
     0
  9
$DIMCLRT
 70
     0
  9
$DIMTFAC
 40
1.0
  9
$DIMGAP
 40
1.524
  9
$DIMJUST
 70
     0
  9
$DIMSD1
 70
     0
  9
$DIMSD2
 70
     0
  9
$DIMTOLJ
 70
     0
  9
$DIMTZIN
 70
     1
  9
$DIMALTZ
 70
     0
  9
$DIMALTTZ
 70
     0
  9
$DIMUPT
 70
     0
  9
$DIMDEC
 70
     2
  9
$DIMTDEC
 70
     2
  9
$DIMALTU
 70
     2
  9
$DIMALTTD
 70
     3
  9
$DIMTXSTY
  7
Standard
  9
$DIMAUNIT
 70
     0
  9
$DIMADEC
 70
     2
  9
$DIMALTRND
 40
0.0
  9
$DIMAZIN
 70
     0
  9
$DIMDSEP
 70
    44
  9
$DIMATFIT
 70
     3
  9
$DIMFRAC
 70
     0
  9
$DIMLDRBLK
  1

  9
$DIMLUNIT
 70
     2
  9
$DIMLWD
 70
    -2
  9
$DIMLWE
 70
    -2
  9
$DIMTMOVE
 70
     0
  9
$LUNITS
 70
     2
  9
$LUPREC
 70
     2
  9
$SKETCHINC
 40
1.0
  9
$FILLETRAD
 40
0.0
  9
$AUNITS
 70
     0
  9
$AUPREC
 70
     2
  9
$MENU
  1
.
  9
$ELEVATION
 40
0.0
  9
$PELEVATION
 40
0.0
  9
$THICKNESS
 40
0.0
  9
$LIMCHECK
 70
     0
  9
$CHAMFERA
 40
0.0
  9
$CHAMFERB
 40
0.0
  9
$CHAMFERC
 40
0.0
  9
$CHAMFERD
 40
0.0
  9
$SKPOLY
 70
     0
  9
$TDCREATE
 40
2460592.456997604
  9
$TDUCREATE
 40
2460592.706997604
  9
$TDUPDATE
 40
2460592.457083877
  9
$TDUUPDATE
 40
2460592.707083877
  9
$TDINDWG
 40
0.0000000116
  9
$TDUSRTIMER
 40
0.0000000116
  9
$USRTIMER
 70
     1
  9
$ANGBASE
 50
0.0
  9
$ANGDIR
 70
     0
  9
$PDMODE
 70
     0
  9
$PDSIZE
 40
-1.0
  9
$PLINEWID
 40
0.0
  9
$SPLFRAME
 70
     0
  9
$SPLINETYPE
 70
     6
  9
$SPLINESEGS
 70
     8
  9
$HANDSEED
  5
1E9
  9
$SURFTAB1
 70
     6
  9
$SURFTAB2
 70
     6
  9
$SURFTYPE
 70
     6
  9
$SURFU
 70
     6
  9
$SURFV
 70
     6
  9
$UCSBASE
  2

  9
$UCSNAME
  2

  9
$UCSORG
 10
0.0
 20
0.0
 30
0.0
  9
$UCSXDIR
 10
1.0
 20
0.0
 30
0.0
  9
$UCSYDIR
 10
0.0
 20
1.0
 30
0.0
  9
$UCSORTHOREF
  2

  9
$UCSORTHOVIEW
 70
     0
  9
$UCSORGTOP
 10
0.0
 20
0.0
 30
0.0
  9
$UCSORGBOTTOM
 10
0.0
 20
0.0
 30
0.0
  9
$UCSORGLEFT
 10
0.0
 20
0.0
 30
0.0
  9
$UCSORGRIGHT
 10
0.0
 20
0.0
 30
0.0
  9
$UCSORGFRONT
 10
0.0
 20
0.0
 30
0.0
  9
$UCSORGBACK
 10
0.0
 20
0.0
 30
0.0
  9
$PUCSBASE
  2

  9
$PUCSNAME
  2

  9
$PUCSORG
 10
0.0
 20
0.0
 30
0.0
  9
$PUCSXDIR
 10
1.0
 20
0.0
 30
0.0
  9
$PUCSYDIR
 10
0.0
 20
1.0
 30
0.0
  9
$PUCSORTHOREF
  2

  9
$PUCSORTHOVIEW
 70
     0
  9
$PUCSORGTOP
 10
0.0
 20
0.0
 30
0.0
  9
$PUCSORGBOTTOM
 10
0.0
 20
0.0
 30
0.0
  9
$PUCSORGLEFT
 10
0.0
 20
0.0
 30
0.0
  9
$PUCSORGRIGHT
 10
0.0
 20
0.0
 30
0.0
  9
$PUCSORGFRONT
 10
0.0
 20
0.0
 30
0.0
  9
$PUCSORGBACK
 10
0.0
 20
0.0
 30
0.0
  9
$USERI1
 70
     0
  9
$USERI2
 70
     0
  9
$USERI3
 70
     0
  9
$USERI4
 70
     0
  9
$USERI5
 70
     0
  9
$USERR1
 40
0.0
  9
$USERR2
 40
0.0
  9
$USERR3
 40
0.0
  9
$USERR4
 40
0.0
  9
$USERR5
 40
0.0
  9
$WORLDVIEW
 70
     1
  9
$SHADEDGE
 70
     3
  9
$SHADEDIF
 70
    70
  9
$TILEMODE
 70
     1
  9
$MAXACTVP
 70
    64
  9
$PINSBASE
 10
0.0
 20
0.0
 30
0.0
  9
$PLIMCHECK
 70
     0
  9
$PEXTMIN
 10
1.0000000000E+20
 20
1.0000000000E+20
 30
1.0000000000E+20
  9
$PEXTMAX
 10
-1.0000000000E+20
 20
-1.0000000000E+20
 30
-1.0000000000E+20
  9
$PLIMMIN
 10
0.0
 20
0.0
  9
$PLIMMAX
 10
420.0
 20
297.0
  9
$UNITMODE
 70
     0
  9
$VISRETAIN
 70
     1
  9
$PLINEGEN
 70
     0
  9
$PSLTSCALE
 70
     1
  9
$TREEDEPTH
 70
  3020
  9
$CMLSTYLE
  2
Standard
  9
$CMLJUST
 70
     0
  9
$CMLSCALE
 40
20.0
  9
$PROXYGRAPHICS
 70
     1
  9
$MEASUREMENT
 70
     1
  9
$CELWEIGHT
370
    -1
  9
$ENDCAPS
280
     0
  9
$JOINSTYLE
280
     0
  9
$LWDISPLAY
290
     1
  9
$INSUNITS
 70
     4
  9
$HYPERLINKBASE
  1

  9
$STYLESHEET
  1

  9
$XEDIT
290
     1
  9
$CEPSNTYPE
380
     0
  9
$PSTYLEMODE
290
     1
  9
$FINGERPRINTGUID
  2
{c674edc5-62ca-45c5-8eeb-7e0cfc19130b}
  9
$VERSIONGUID
  2
{FAEB1C32-E019-11D5-929B-00C0DF256EC4}
  9
$EXTNAMES
290
     1
  9
$PSVPSCALE
 40
0.0
  9
$OLESTARTUP
290
     0
  0
ENDSEC
  0
SECTION
  2
CLASSES
  0
CLASS
  1
ACDBDICTIONARYWDFLT
  2
AcDbDictionaryWithDefault
  3
ObjectDBX Classes
 90
        0
280
     0
281
     0
  0
CLASS
  1
VISUALSTYLE
  2
AcDbVisualStyle
  3
ObjectDBX Classes
 90
     4095
280
     0
281
     0
  0
CLASS
  1
MATERIAL
  2
AcDbMaterial
  3
ObjectDBX Classes
 90
     1153
280
     0
281
     0
  0
CLASS
  1
SCALE
  2
AcDbScale
  3
ObjectDBX Classes
 90
     1153
280
     0
281
     0
  0
CLASS
  1
TABLESTYLE
  2
AcDbTableStyle
  3
ObjectDBX Classes
 90
     4095
280
     0
281
     0
  0
CLASS
  1
MLEADERSTYLE
  2
AcDbMLeaderStyle
  3
ACDB_MLEADERSTYLE_CLASS
 90
     4095
280
     0
281
     0
  0
CLASS
  1
SUN
  2
AcDbSun
  3
SCENEOE
 90
     1153
280
     0
281
     0
  0
CLASS
  1
ACDBPLACEHOLDER
  2
AcDbPlaceHolder
  3
ObjectDBX Classes
 90
        0
280
     0
281
     0
  0
CLASS
  1
LAYOUT
  2
AcDbLayout
  3
ObjectDBX Classes
 90
        0
280
     0
281
     0
  0
ENDSEC
  0
SECTION
  2
TABLES
  0
TABLE
  2
VPORT
  5
8
330
0
100
AcDbSymbolTable
 70
     1
  0
VPORT
  5
29
330
8
100
AcDbSymbolTableRecord
100
AcDbViewportTableRecord
  2
*Active
 70
     0
 10
0.0
 20
0.0
 11
1.0
 21
1.0
 12
15.8356491298
 22
77.6559501161
 13
0.0
 23
0.0
 14
10.0
 24
10.0
 15
10.0
 25
10.0
 16
0.0
 26
0.0
 36
1.0
 17
0.0
 27
0.0
 37
0.0
 40
246.6712264859
 41
1.5985885005
 42
50.0
 43
0.0
 44
0.0
 50
0.0
 51
0.0
 71
     0
 72
   100
 73
     1
 74
     3
 75
     0
 76
     0
 77
     0
 78
     0
281
     0
 65
     1
110
0.0
120
0.0
130
0.0
111
1.0
121
0.0
131
0.0
112
0.0
122
1.0
132
0.0
 79
     0
146
0.0
  0
ENDTAB
  0
TABLE
  2
LTYPE
  5
5
330
0
100
AcDbSymbolTable
 70
     6
  0
LTYPE
  5
14
330
5
100
AcDbSymbolTableRecord
100
AcDbLinetypeTableRecord
  2
ByBlock
 70
     0
  3

 72
    65
 73
     0
 40
0.0
  0
LTYPE
  5
15
330
5
100
AcDbSymbolTableRecord
100
AcDbLinetypeTableRecord
  2
ByLayer
 70
     0
  3

 72
    65
 73
     0
 40
0.0
  0
LTYPE
  5
16
330
5
100
AcDbSymbolTableRecord
100
AcDbLinetypeTableRecord
  2
Continuous
 70
     0
  3
Solid line
 72
    65
 73
     0
 40
0.0
  0
LTYPE
  5
5E
330
5
100
AcDbSymbolTableRecord
100
AcDbLinetypeTableRecord
  2
HIDDEN
 70
     0
  3
Hidden __ __ __ __ __ __ __ __ __ __ __ __ __ __
 72
    65
 73
     2
 40
1.905
 49
1.27
 74
     0
 49
-0.635
 74
     0
  0
LTYPE
  5
5F
330
5
100
AcDbSymbolTableRecord
100
AcDbLinetypeTableRecord
  2
PHANTOM
 70
     0
  3
Phantom ______  __  __  ______  __  __  ______
 72
    65
 73
     6
 40
12.7
 49
6.35
 74
     0
 49
-1.27
 74
     0
 49
1.27
 74
     0
 49
-1.27
 74
     0
 49
1.27
 74
     0
 49
-1.27
 74
     0
  0
LTYPE
  5
60
330
5
100
AcDbSymbolTableRecord
100
AcDbLinetypeTableRecord
  2
CENTER
 70
     0
  3
Center ____ _ ____ _ ____ _ ____ _ ____ _ ____
 72
    65
 73
     4
 40
10.16
 49
6.35
 74
     0
 49
-1.27
 74
     0
 49
1.27
 74
     0
 49
-1.27
 74
     0
  0
LTYPE
  5
61
330
5
100
AcDbSymbolTableRecord
100
AcDbLinetypeTableRecord
  2
CENTERX2
 70
     0
  3
Center (2x) ________  __  ________  __  _____
 72
    65
 73
     4
 40
20.32
 49
12.7
 74
     0
 49
-2.54
 74
     0
 49
2.54
 74
     0
 49
-2.54
 74
     0
  0
LTYPE
  5
62
330
5
100
AcDbSymbolTableRecord
100
AcDbLinetypeTableRecord
  2
DOT2
 70
     0
  3
Dot (.5x) ........................................
 72
    65
 73
     2
 40
0.635
 49
0.0
 74
     0
 49
-0.635
 74
     0
  0
ENDTAB
  0
TABLE
  2
LAYER
  5
2
330
0
100
AcDbSymbolTable
 70
     1
  0
LAYER
  5
10
330
2
100
AcDbSymbolTableRecord
100
AcDbLayerTableRecord
  2
0
 70
     0
 62
     7
  6
Continuous
370
    -3
390
F
  0
ENDTAB
  0
TABLE
  2
STYLE
  5
3
330
0
100
AcDbSymbolTable
 70
     2
  0
STYLE
  5
11
330
3
100
AcDbSymbolTableRecord
100
AcDbTextStyleTableRecord
  2
Standard
 70
     0
 40
0.0
 41
1.0
 50
0.0
 71
     0
 42
3.5
  3
txt
  4

  0
STYLE
  5
1E5
330
3
100
AcDbSymbolTableRecord
100
AcDbTextStyleTableRecord
  2
SLDTEXTSTYLE0
 70
     0
 40
0.0
 41
0.7
 50
0.0
 71
     0
 42
3.5
  3
TXT
  4

  0
ENDTAB
  0
TABLE
  2
VIEW
  5
6
330
0
100
AcDbSymbolTable
 70
     0
  0
ENDTAB
  0
TABLE
  2
UCS
  5
7
330
0
100
AcDbSymbolTable
 70
     0
  0
ENDTAB
  0
TABLE
  2
APPID
  5
9
330
0
100
AcDbSymbolTable
 70
     1
  0
APPID
  5
12
330
9
100
AcDbSymbolTableRecord
100
AcDbRegAppTableRecord
  2
ACAD
 70
     0
  0
ENDTAB
  0
TABLE
  2
DIMSTYLE
  5
A
330
0
100
AcDbSymbolTable
 70
     1
100
AcDbDimStyleTable
  0
DIMSTYLE
105
27
330
A
100
AcDbSymbolTableRecord
100
AcDbDimStyleTableRecord
  2
ISO-25
 70
     0
 41
2.5
 42
0.625
 43
3.75
 44
1.25
 73
     0
 74
     0
 77
     1
 78
     8
140
2.5
141
2.5
143
0.0393700787
147
0.625
171
     3
172
     1
178
     0
271
     2
272
     2
274
     3
278
    44
283
     0
284
     8
340
11
  0
ENDTAB
  0
TABLE
  2
BLOCK_RECORD
  5
1
330
0
100
AcDbSymbolTable
 70
     1
  0
BLOCK_RECORD
  5
1F
330
1
100
AcDbSymbolTableRecord
100
AcDbBlockTableRecord
  2
*Model_Space
340
22
  0
BLOCK_RECORD
  5
1B
330
1
100
AcDbSymbolTableRecord
100
AcDbBlockTableRecord
  2
*Paper_Space
340
1E
  0
BLOCK_RECORD
  5
23
330
1
100
AcDbSymbolTableRecord
100
AcDbBlockTableRecord
  2
*Paper_Space0
340
26
  0
ENDTAB
  0
ENDSEC
  0
SECTION
  2
BLOCKS
  0
BLOCK
  5
20
330
1F
100
AcDbEntity
  8
0
100
AcDbBlockBegin
  2
*Model_Space
 70
     0
 10
0.0
 20
0.0
 30
0.0
  3
*Model_Space
  1

  0
ENDBLK
  5
21
330
1F
100
AcDbEntity
  8
0
100
AcDbBlockEnd
  0
BLOCK
  5
1C
330
1B
100
AcDbEntity
 67
     1
  8
0
100
AcDbBlockBegin
  2
*Paper_Space
 70
     0
 10
0.0
 20
0.0
 30
0.0
  3
*Paper_Space
  1

  0
ENDBLK
  5
1D
330
1B
100
AcDbEntity
 67
     1
  8
0
100
AcDbBlockEnd
  0
BLOCK
  5
24
330
23
100
AcDbEntity
  8
0
100
AcDbBlockBegin
  2
*Paper_Space0
 70
     0
 10
0.0
 20
0.0
 30
0.0
  3
*Paper_Space0
  1

  0
ENDBLK
  5
25
330
23
100
AcDbEntity
  8
0
100
AcDbBlockEnd
  0
ENDSEC
  0
SECTION
  2
ENTITIES
  0
CIRCLE
  5
63
330
1F
100
AcDbEntity
  8
0
  6
Continuous
 62
     7
370
    25
100
AcDbCircle
 10
28.7948413337
 20
-27.761885136
 30
0.0
 40
1.499890897853518
  0
CIRCLE
  5
65
330
1F
100
AcDbEntity
  8
0
  6
Continuous
 62
     7
370
    25
100
AcDbCircle
 10
37.6043188079
 20
-27.761835136
 30
0.0
 40
1.324906007899308
  0
SPLINE
  5
6B
330
1F
100
AcDbEntity
  8
0
  6
Continuous
 62
     7
370
    25
100
AcDbSpline
210
0.0
220
0.0
230
1.0
 70
     8
 71
     3
 72
    18
 73
    14
 74
     0
 42
0.00000001
 43
0.00000001
 40
0.0
 40
0.0
 40
0.0
 40
0.0
 40
0.2499999999999943
 40
0.2499999999999943
 40
0.3749999999999953
 40
0.3749999999999953
 40
0.4999999999999962
 40
0.4999999999999962
 40
0.6249999999999971
 40
0.6249999999999971
 40
0.7499999999999981
 40
0.7499999999999981
 40
1.0
 40
1.0
 40
1.0
 40
1.0
 10
33.39102416997874
 20
-33.51760415497923
 30
0.0
 10
33.22985069049471
 20
-33.76105933552992
 30
0.0
 10
33.1709827003106
 20
-33.98997090440824
 30
0.0
 10
33.22732032212672
 20
-34.32307369805354
 30
0.0
 10
33.26972761213759
 20
-34.43278573144061
 30
0.0
 10
33.38221149215764
 20
-34.66109232161971
 30
0.0
 10
33.45178541977541
 20
-34.77994831080447
 30
0.0
 10
33.58825704912808
 20
-35.04300617575507
 30
0.0
 10
33.65466370174971
 20
-35.18748873085248
 30
0.0
 10
33.75951194624407
 20
-35.51464771977329
 30
0.0
 10
33.79798995082443
 20
-35.69727527059948
 30
0.0
 10
33.85671437743554
 20
-36.3074794130988
 30
0.0
 10
33.8199282189122
 20
-36.79689777811185
 30
0.0
 10
33.70695947981318
 20
-37.36412362327829
 30
0.0
  0
SPLINE
  5
6E
330
1F
100
AcDbEntity
  8
0
  6
Continuous
 62
     7
370
    25
100
AcDbSpline
210
0.0
220
0.0
230
1.0
 70
     8
 71
     3
 72
    18
 73
    14
 74
     0
 42
0.00000001
 43
0.00000001
 40
0.0
 40
0.0
 40
0.0
 40
0.0
 40
0.2499999999999955
 40
0.2499999999999955
 40
0.3749999999999964
 40
0.3749999999999964
 40
0.4999999999999974
 40
0.4999999999999974
 40
0.6249999999999984
 40
0.6249999999999984
 40
0.7499999999999993
 40
0.7499999999999993
 40
1.0
 40
1.0
 40
1.0
 40
1.0
 10
29.38460851359979
 20
-35.10391297325846
 30
0.0
 10
29.66868247531647
 20
-35.17105282477527
 30
0.0
 10
29.86836163019546
 20
-35.2976146809192
 30
0.0
 10
30.05532424650007
 20
-35.57899765635501
 30
0.0
 10
30.09951620517187
 20
-35.68800306585375
 30
0.0
 10
30.17381115650444
 20
-35.9314302265778
 30
0.0
 10
30.20445953356429
 20
-36.06569844528232
 30
0.0
 10
30.28505800545717
 20
-36.35087879571747
 30
0.0
 10
30.33555819491126
 20
-36.50165937507044
 30
0.0
 10
30.48308993339731
 20
-36.81191820982583
 30
0.0
 10
30.58006147575054
 20
-36.97138575863926
 30
0.0
 10
30.95497775925036
 20
-37.45639651531491
 30
0.0
 10
31.31683120724017
 20
-37.7879770329064
 30
0.0
 10
31.78748235637171
 20
-38.12412371447245
 30
0.0
  0
SPLINE
  5
70
330
1F
100
AcDbEntity
  8
0
  6
Continuous
 62
     7
370
    25
100
AcDbSpline
210
0.0
220
0.0
230
1.0
 70
     8
 71
     3
 72
    18
 73
    14
 74
     0
 42
0.00000001
 43
0.00000001
 40
0.0
 40
0.0
 40
0.0
 40
0.0
 40
0.2499999999999948
 40
0.2499999999999948
 40
0.3749999999999964
 40
0.3749999999999964
 40
0.4999999999999981
 40
0.4999999999999981
 40
0.6249999999999998
 40
0.6249999999999998
 40
0.7500000000000013
 40
0.7500000000000013
 40
1.0
 40
1.0
 40
1.0
 40
1.0
 10
27.97492543589312
 20
-35.08178513599709
 30
0.0
 10
27.68880976664631
 20
-35.13996708508402
 30
0.0
 10
27.48531888889604
 20
-35.26020605255821
 30
0.0
 10
27.28961635902325
 20
-35.53558201102058
 30
0.0
 10
27.24202471855269
 20
-35.64314661609101
 30
0.0
 10
27.1601256947627
 20
-35.88412186848517
 30
0.0
 10
27.12527801483911
 20
-36.01736194043912
 30
0.0
 10
27.03576802926135
 20
-36.29987195518811
 30
0.0
 10
26.98056002918997
 20
-36.44899314408215
 30
0.0
 10
26.82336259430645
 20
-36.75446838841692
 30
0.0
 10
26.72143347266536
 20
-36.91081362603082
 30
0.0
 10
26.33147842589824
 20
-37.38381755341946
 30
0.0
 10
25.95939563900454
 20
-37.70387685598273
 30
0.0
 10
25.47842543589321
 20
-38.02508513599724
 30
0.0
  0
SPLINE
  5
73
330
1F
100
AcDbEntity
  8
0
  6
Continuous
 62
     7
370
    25
100
AcDbSpline
210
0.0
220
0.0
230
1.0
 70
     8
 71
     3
 72
    18
 73
    14
 74
     0
 42
0.00000001
 43
0.00000001
 40
0.0
 40
0.0
 40
0.0
 40
0.0
 40
0.2499999999999989
 40
0.2499999999999989
 40
0.3749999999999984
 40
0.3749999999999984
 40
0.4999999999999979
 40
0.4999999999999979
 40
0.6249999999999973
 40
0.6249999999999973
 40
0.7499999999999969
 40
0.7499999999999969
 40
1.0
 40
1.0
 40
1.0
 40
1.0
 10
24.02026292642169
 20
-33.37050342590233
 30
0.0
 10
24.17371543276622
 20
-33.61889755558954
 30
0.0
 10
24.22536935278427
 20
-33.84954407990313
 30
0.0
 10
24.15860407648166
 20
-34.18071442361989
 30
0.0
 10
24.11277404586308
 20
-34.28904132146286
 30
0.0
 10
23.99317951365598
 20
-34.51370478137255
 30
0.0
 10
23.91990922096081
 20
-34.63031842455965
 30
0.0
 10
23.77524798735577
 20
-34.88896311027957
 30
0.0
 10
23.704339043661
 20
-35.03129010687103
 30
0.0
 10
23.58927361046156
 20
-35.35499692568963
 30
0.0
 10
23.54508226052845
 20
-35.53632674608477
 30
0.0
 10
23.46723371204084
 20
-36.14438698766811
 30
0.0
 10
23.48863990640733
 20
-36.63471884703376
 30
0.0
 10
23.5837489273893
 20
-37.20521106386535
 30
0.0
  0
SPLINE
  5
75
330
1F
100
AcDbEntity
  8
0
  6
Continuous
 62
     7
370
    25
100
AcDbSpline
210
0.0
220
0.0
230
1.0
 70
     8
 71
     3
 72
    18
 73
    14
 74
     0
 42
0.00000001
 43
0.00000001
 40
0.0
 40
0.0
 40
0.0
 40
0.0
 40
0.2500000000000044
 40
0.2500000000000044
 40
0.375000000000004
 40
0.375000000000004
 40
0.5000000000000037
 40
0.5000000000000037
 40
0.6250000000000033
 40
0.6250000000000033
 40
0.7500000000000029
 40
0.7500000000000029
 40
1.0
 40
1.0
 40
1.0
 40
1.0
 10
23.03912231476449
 20
-32.35806797222978
 30
0.0
 10
22.79566713419403
 20
-32.19689449329255
 30
0.0
 10
22.56675556532752
 20
-32.1380265029062
 30
0.0
 10
22.23365277169118
 20
-32.19436412437812
 30
0.0
 10
22.1239407383039
 20
-32.23677141427761
 30
0.0
 10
21.89563414811954
 20
-32.34925529418567
 30
0.0
 10
21.77677815893034
 20
-32.41882922180037
 30
0.0
 10
21.51372029397897
 20
-32.55530085123895
 30
0.0
 10
21.36923773888572
 20
-32.62170750394787
 30
0.0
 10
21.04207874998409
 20
-32.72655574863342
 30
0.0
 10
20.85945119917258
 20
-32.7650337533163
 30
0.0
 10
20.2492470567095
 20
-32.8237581801272
 30
0.0
 10
19.75982869170258
 20
-32.78697202157144
 30
0.0
 10
19.19260284646545
 20
-32.67400328206413
 30
0.0
  0
SPLINE
  5
78
330
1F
100
AcDbEntity
  8
0
  6
Continuous
 62
     7
370
    25
100
AcDbSpline
210
0.0
220
0.0
230
1.0
 70
     8
 71
     3
 72
    18
 73
    14
 74
     0
 42
0.00000001
 43
0.00000001
 40
0.0
 40
0.0
 40
0.0
 40
0.0
 40
0.2500000000000024
 40
0.2500000000000024
 40
0.3750000000000021
 40
0.3750000000000021
 40
0.5000000000000017
 40
0.5000000000000017
 40
0.6250000000000012
 40
0.6250000000000012
 40
0.7500000000000009
 40
0.7500000000000009
 40
1.0
 40
1.0
 40
1.0
 40
1.0
 10
21.45281253874149
 20
-28.35164039274979
 30
0.0
 10
21.38567867325672
 20
-28.63578887433382
 30
0.0
 10
21.25911178890066
 20
-28.83540543275279
 30
0.0
 10
20.97772881338783
 20
-29.02236804875157
 30
0.0
 10
20.86872340386767
 20
-29.06656000732387
 30
0.0
 10
20.62529624312706
 20
-29.14085495855496
 30
0.0
 10
20.49102802442649
 20
-29.17150333561114
 30
0.0
 10
20.20584767400909
 20
-29.25210180758069
 30
0.0
 10
20.05506709466895
 20
-29.30260199711379
 30
0.0
 10
19.74480825993069
 20
-29.45013373577483
 30
0.0
 10
19.58534071112137
 20
-29.54710527822266
 30
0.0
 10
19.10032995444463
 20
-29.92202156190886
 30
0.0
 10
18.76874943683687
 20
-30.28387500987169
 30
0.0
 10
18.43260275527143
 20
-30.75452615862259
 30
0.0
  0
SPLINE
  5
7A
330
1F
100
AcDbEntity
  8
0
  6
Continuous
 62
     7
370
    25
100
AcDbSpline
210
0.0
220
0.0
230
1.0
 70
     8
 71
     3
 72
    18
 73
    14
 74
     0
 42
0.00000001
 43
0.00000001
 40
0.0
 40
0.0
 40
0.0
 40
0.0
 40
0.2500000000000003
 40
0.2500000000000003
 40
0.3750000000000005
 40
0.3750000000000005
 40
0.5000000000000007
 40
0.5000000000000007
 40
0.6250000000000009
 40
0.6250000000000009
 40
0.750000000000001
 40
0.750000000000001
 40
1.0
 40
1.0
 40
1.0
 40
1.0
 10
21.47494133374671
 20
-26.94196923814413
 30
0.0
 10
21.41675938474007
 20
-26.65585356929512
 30
0.0
 10
21.29652041723289
 20
-26.45236269139883
 30
0.0
 10
21.02114445872276
 20
-26.25666016127473
 30
0.0
 10
20.91357985363823
 20
-26.20906852072157
 30
0.0
 10
20.67260460123228
 20
-26.12716949684551
 30
0.0
 10
20.53936452928011
 20
-26.09232181691725
 30
0.0
 10
20.25685451454271
 20
-26.00281183140284
 30
0.0
 10
20.10773332565772
 20
-25.94760383139846
 30
0.0
 10
19.80225808133661
 20
-25.79040639666735
 30
0.0
 10
19.64591284372722
 20
-25.68847727511041
 30
0.0
 10
19.17290891634184
 20
-25.2985222285103
 30
0.0
 10
18.85284961376857
 20
-24.92643944159552
 30
0.0
 10
18.53164133374594
 20
-24.44546923814356
 30
0.0
  0
SPLINE
  5
7D
330
1F
100
AcDbEntity
  8
0
  6
Continuous
 62
     7
370
    25
100
AcDbSpline
210
0.0
220
0.0
230
1.0
 70
     8
 71
     3
 72
    18
 73
    14
 74
     0
 42
0.00000001
 43
0.00000001
 40
0.0
 40
0.0
 40
0.0
 40
0.0
 40
0.2500000000000006
 40
0.2500000000000006
 40
0.3750000000000008
 40
0.3750000000000008
 40
0.5000000000000011
 40
0.5000000000000011
 40
0.6250000000000013
 40
0.6250000000000013
 40
0.7500000000000017
 40
0.7500000000000017
 40
1.0
 40
1.0
 40
1.0
 40
1.0
 10
23.18622304384133
 20
-22.98730672867254
 30
0.0
 10
22.93782891436583
 20
-23.14075923548144
 30
0.0
 10
22.7071823899791
 20
-23.1924131553236
 30
0.0
 10
22.37601204612428
 20
-23.12564787873245
 30
0.0
 10
22.2676851482351
 20
-23.07981784802196
 30
0.0
 10
22.04302168827665
 20
-22.96022331572368
 30
0.0
 10
21.92640804508645
 20
-22.88695302302743
 30
0.0
 10
21.667763359402
 20
-22.74229178949414
 30
0.0
 10
21.52543636284848
 20
-22.67138284587039
 30
0.0
 10
21.20172954411717
 20
-22.55631741282209
 30
0.0
 10
21.02039972377083
 20
-22.51212606296801
 30
0.0
 10
20.41233948228648
 20
-22.43427751463088
 30
0.0
 10
19.92200762291027
 20
-22.45568370896774
 30
0.0
 10
19.35151540587864
 20
-22.55079272964011
 30
0.0
  0
SPLINE
  5
7F
330
1F
100
AcDbEntity
  8
0
  6
Continuous
 62
     7
370
    25
100
AcDbSpline
210
0.0
220
0.0
230
1.0
 70
     8
 71
     3
 72
    18
 73
    14
 74
     0
 42
0.00000001
 43
0.00000001
 40
0.0
 40
0.0
 40
0.0
 40
0.0
 40
0.2500000000000001
 40
0.2500000000000001
 40
0.3749999999999997
 40
0.3749999999999997
 40
0.4999999999999994
 40
0.4999999999999994
 40
0.6249999999999991
 40
0.6249999999999991
 40
0.7499999999999988
 40
0.7499999999999988
 40
1.0
 40
1.0
 40
1.0
 40
1.0
 10
24.19865849751387
 20
-22.00616611701531
 30
0.0
 10
24.35983197662893
 20
-21.76271093705268
 30
0.0
 10
24.41869996695026
 20
-21.5337993679611
 30
0.0
 10
24.36236234536557
 20
-21.20069657394218
 30
0.0
 10
24.31995505543008
 20
-21.09098454043119
 30
0.0
 10
24.20747117548651
 20
-20.8626779501218
 30
0.0
 10
24.13789724787124
 20
-20.74382196092907
 30
0.0
 10
24.00142561846035
 20
-20.48076409607345
 30
0.0
 10
23.93501896577909
 20
-20.33628154107744
 30
0.0
 10
23.83017072115435
 20
-20.00912255238853
 30
0.0
 10
23.79169271650442
 20
-19.82649500169101
 30
0.0
 10
23.73296828975871
 20
-19.21629085944956
 30
0.0
 10
23.76975444830568
 20
-18.72687249440483
 30
0.0
 10
23.88272318767972
 20
-18.15964664871585
 30
0.0
  0
SPLINE
  5
82
330
1F
100
AcDbEntity
  8
0
  6
Continuous
 62
     7
370
    25
100
AcDbSpline
210
0.0
220
0.0
230
1.0
 70
     8
 71
     3
 72
    18
 73
    14
 74
     0
 42
0.00000001
 43
0.00000001
 40
0.0
 40
0.0
 40
0.0
 40
0.0
 40
0.25
 40
0.25
 40
0.375
 40
0.375
 40
0.5
 40
0.5
 40
0.625
 40
0.625
 40
0.75
 40
0.75
 40
1.0
 40
1.0
 40
1.0
 40
1.0
 10
28.2050860769939
 20
-20.41985634099214
 30
0.0
 10
27.92093759553509
 20
-20.35272247593503
 30
0.0
 10
27.72132103707331
 20
-20.22615559142427
 30
0.0
 10
27.53435842099253
 20
-19.94477261563916
 30
0.0
 10
27.4901664623927
 20
-19.83576720602948
 30
0.0
 10
27.41587151113292
 20
-19.59234004519633
 30
0.0
 10
27.3852231340753
 20
-19.45807182649127
 30
0.0
 10
27.30462466212682
 20
-19.17289147614268
 30
0.0
 10
27.25412447261596
 20
-19.02211089687468
 30
0.0
 10
27.10659273400546
 20
-18.71185206229882
 30
0.0
 10
27.00962119158554
 20
-18.55238451357866
 30
0.0
 10
26.63470490795606
 20
-18.06737375707942
 30
0.0
 10
26.27285145998779
 20
-17.73579323944999
 30
0.0
 10
25.80220031112145
 20
-17.39964655752235
 30
0.0
  0
SPLINE
  5
84
330
1F
100
AcDbEntity
  8
0
  6
Continuous
 62
     7
370
    25
100
AcDbSpline
210
0.0
220
0.0
230
1.0
 70
     8
 71
     3
 72
    18
 73
    14
 74
     0
 42
0.00000001
 43
0.00000001
 40
0.0
 40
0.0
 40
0.0
 40
0.0
 40
0.2500000000000036
 40
0.2500000000000036
 40
0.3750000000000027
 40
0.3750000000000027
 40
0.5000000000000019
 40
0.5000000000000019
 40
0.625000000000001
 40
0.625000000000001
 40
0.7500000000000001
 40
0.7500000000000001
 40
1.0
 40
1.0
 40
1.0
 40
1.0
 10
29.61475723159993
 20
-20.44198513599732
 30
0.0
 10
29.90087290042344
 20
-20.38380318760685
 30
0.0
 10
30.10436377833231
 20
-20.26356421987052
 30
0.0
 10
30.30006630846973
 20
-19.98818826097359
 30
0.0
 10
30.34765794902549
 20
-19.88062365576504
 30
0.0
 10
30.42955697290091
 20
-19.63964840323586
 30
0.0
 10
30.46440465282632
 20
-19.50640833128186
 30
0.0
 10
30.55391463833785
 20
-19.22389831664095
 30
0.0
 10
30.60912263834269
 20
-19.07477712785197
 30
0.0
 10
30.76632007308309
 20
-18.76930188373628
 30
0.0
 10
30.86824919464873
 20
-18.61295664623473
 30
0.0
 10
31.25820424127183
 20
-18.13995271905452
 30
0.0
 10
31.63028702819477
 20
-17.81989341643832
 30
0.0
 10
32.11125723160026
 20
-17.49868513599723
 30
0.0
  0
SPLINE
  5
87
330
1F
100
AcDbEntity
  8
0
  6
Continuous
 62
     7
370
    25
100
AcDbSpline
210
0.0
220
0.0
230
1.0
 70
     8
 71
     3
 72
    18
 73
    14
 74
     0
 42
0.00000001
 43
0.00000001
 40
0.0
 40
0.0
 40
0.0
 40
0.0
 40
0.2500000000000016
 40
0.2500000000000016
 40
0.3750000000000016
 40
0.3750000000000016
 40
0.5000000000000016
 40
0.5000000000000016
 40
0.6250000000000016
 40
0.6250000000000016
 40
0.7500000000000016
 40
0.7500000000000016
 40
1.0
 40
1.0
 40
1.0
 40
1.0
 10
33.56941974107131
 20
-22.15326684609209
 30
0.0
 10
33.4159672343397
 20
-21.90487271695071
 30
0.0
 10
33.36431331446754
 20
-21.67422619243883
 30
0.0
 10
33.43107859101154
 20
-21.34305584837542
 30
0.0
 10
33.47690862170685
 20
-21.23472895041822
 30
0.0
 10
33.59650315398964
 20
-21.01006549038929
 30
0.0
 10
33.66977344668534
 20
-20.89345184719589
 30
0.0
 10
33.8144346802306
 20
-20.63480716156393
 30
0.0
 10
33.88534362386647
 20
-20.49248016506519
 30
0.0
 10
34.00040905694096
 20
-20.16877334645704
 30
0.0
 10
34.04460040680886
 20
-19.98744352617815
 30
0.0
 10
34.12244895517206
 20
-19.37938328482797
 30
0.0
 10
34.10104276082955
 20
-18.88905142543596
 30
0.0
 10
34.00593374010381
 20
-18.31855920812946
 30
0.0
  0
CIRCLE
  5
8B
330
1F
100
AcDbEntity
  8
0
  6
Continuous
 62
     7
370
    25
100
AcDbCircle
 10
7.8311021242
 20
-27.5509364172
 30
0.0
 40
1.500050000833281
  0
SPLINE
  5
8C
330
1F
100
AcDbEntity
  8
0
  6
Continuous
 62
     7
370
    25
100
AcDbSpline
210
0.0
220
0.0
230
1.0
 70
     8
 71
     3
 72
    18
 73
    14
 74
     0
 42
0.00000001
 43
0.00000001
 40
0.0
 40
0.0
 40
0.0
 40
0.0
 40
0.2499999999999996
 40
0.2499999999999996
 40
0.3749999999999993
 40
0.3749999999999993
 40
0.499999999999999
 40
0.499999999999999
 40
0.6249999999999987
 40
0.6249999999999987
 40
0.7499999999999984
 40
0.7499999999999984
 40
1.0
 40
1.0
 40
1.0
 40
1.0
 10
5.566796883158355
 20
-20.54211968217583
 30
0.0
 10
5.804128402735052
 20
-20.36965705561063
 30
0.0
 10
5.940429716059067
 20
-20.17518154391646
 30
0.0
 10
6.005647958518948
 20
-19.84274977002756
 30
0.0
 10
6.004764885677742
 20
-19.72495712519462
 30
0.0
 10
5.980168168682409
 20
-19.47147361189566
 30
0.0
 10
5.957018406710053
 20
-19.33571382600588
 30
0.0
 10
5.922166895687246
 20
-19.04149807539558
 30
0.0
 10
5.911025185304421
 20
-18.88295120115423
 30
0.0
 10
5.928470515658594
 20
-18.53997221956538
 30
0.0
 10
5.957007318979725
 20
-18.3555727708311
 30
0.0
 10
6.117861368605873
 20
-17.76398383260887
 30
0.0
 10
6.325556658982434
 20
-17.31896311381055
 30
0.0
 10
6.632250842945182
 20
-16.82788130979877
 30
0.0
  0
SPLINE
  5
8F
330
1F
100
AcDbEntity
  8
0
  6
Continuous
 62
     7
370
    25
100
AcDbSpline
210
0.0
220
0.0
230
1.0
 70
     8
 71
     3
 72
    18
 73
    14
 74
     0
 42
0.00000001
 43
0.00000001
 40
0.0
 40
0.0
 40
0.0
 40
0.0
 40
0.2500000000000005
 40
0.2500000000000005
 40
0.3750000000000008
 40
0.3750000000000008
 40
0.500000000000001
 40
0.500000000000001
 40
0.6250000000000012
 40
0.6250000000000012
 40
0.7500000000000016
 40
0.7500000000000016
 40
1.0
 40
1.0
 40
1.0
 40
1.0
 10
9.873222253887757
 20
-20.47419029822498
 30
0.0
 10
9.632109127540783
 20
-20.30905802647169
 30
0.0
 10
9.4909216906139
 20
-20.11884712215001
 30
0.0
 10
9.416370456374718
 20
-19.78858248523928
 30
0.0
 10
9.413796784729291
 20
-19.67082554491148
 30
0.0
 10
9.430693558798202
 20
-19.41673586747464
 30
0.0
 10
9.449600275911605
 20
-19.28035170043491
 30
0.0
 10
9.475161161308128
 20
-18.98527688804563
 30
0.0
 10
9.481255179126524
 20
-18.82651279185411
 30
0.0
 10
9.452958448017444
 20
-18.48437240519332
 30
0.0
 10
9.418620683081924
 20
-18.30102747047786
 30
0.0
 10
9.239353007848493
 20
-17.71499766974746
 30
0.0
 10
9.01805520182464
 20
-17.27687976609957
 30
0.0
 10
8.696589899408625
 20
-16.79584059513591
 30
0.0
  0
SPLINE
  5
91
330
1F
100
AcDbEntity
  8
0
  6
Continuous
 62
     7
370
    25
100
AcDbSpline
210
0.0
220
0.0
230
1.0
 70
     8
 71
     3
 72
    18
 73
    14
 74
     0
 42
0.00000001
 43
0.00000001
 40
0.0
 40
0.0
 40
0.0
 40
0.0
 40
0.2500000000000017
 40
0.2500000000000017
 40
0.3750000000000014
 40
0.3750000000000014
 40
0.5000000000000012
 40
0.5000000000000012
 40
0.625000000000001
 40
0.625000000000001
 40
0.7500000000000007
 40
0.7500000000000007
 40
1.0
 40
1.0
 40
1.0
 40
1.0
 10
11.18597837502271
 20
-20.99384898518029
 30
0.0
 10
11.47574659505094
 20
-21.03971821992653
 30
0.0
 10
11.70964113092882
 20
-20.99858284953983
 30
0.0
 10
11.99082215377879
 20
-20.80963434906052
 30
0.0
 10
12.07348970484299
 20
-20.72571794421292
 30
0.0
 10
12.23533711056263
 20
-20.52908552754795
 30
0.0
 10
12.31496442210791
 20
-20.41671950866421
 30
0.0
 10
12.49836263477817
 20
-20.18403381659002
 30
0.0
 10
12.60259382577928
 20
-20.06404586779734
 30
0.0
 10
12.85745230096325
 20
-19.83385881567003
 30
0.0
 10
13.00802096880132
 20
-19.72364728224385
 30
0.0
 10
13.54007850804879
 20
-19.41907172176162
 30
0.0
 10
14.00161842429016
 20
-19.25125730192487
 30
0.0
 10
14.56573123508119
 20
-19.12087556513649
 30
0.0
  0
SPLINE
  5
94
330
1F
100
AcDbEntity
  8
0
  6
Continuous
 62
     7
370
    25
100
AcDbSpline
210
0.0
220
0.0
230
1.0
 70
     8
 71
     3
 72
    18
 73
    14
 74
     0
 42
0.00000001
 43
0.00000001
 40
0.0
 40
0.0
 40
0.0
 40
0.0
 40
0.2500000000000029
 40
0.2500000000000029
 40
0.3750000000000028
 40
0.3750000000000028
 40
0.5000000000000027
 40
0.5000000000000027
 40
0.6250000000000024
 40
0.6250000000000024
 40
0.7500000000000022
 40
0.7500000000000022
 40
1.0
 40
1.0
 40
1.0
 40
1.0
 10
14.27911140535508
 20
-23.99090284053118
 30
0.0
 10
14.22538817876057
 20
-23.70364704831901
 30
0.0
 10
14.26005570530006
 20
-23.46931578086671
 30
0.0
 10
14.44087489931947
 20
-23.18307057728063
 30
0.0
 10
14.5223223133939
 20
-23.09798468524421
 30
0.0
 10
14.71393905506114
 20
-22.93026478554186
 30
0.0
 10
14.82374613783247
 20
-22.84719580092866
 30
0.0
 10
15.05046905273394
 20
-22.65662065363361
 30
0.0
 10
15.16704074348355
 20
-22.54866647600305
 30
0.0
 10
15.38896044945024
 20
-22.28672784463051
 30
0.0
 10
15.49432376568035
 20
-22.1328030382775
 30
0.0
 10
15.78194624731987
 20
-21.59165702570461
 30
0.0
 10
15.9352603267236
 20
-21.1253813241523
 30
0.0
 10
16.04809558718697
 20
-20.55792750401784
 30
0.0
  0
SPLINE
  5
96
330
1F
100
AcDbEntity
  8
0
  6
Continuous
 62
     7
370
    25
100
AcDbSpline
210
0.0
220
0.0
230
1.0
 70
     8
 71
     3
 72
    18
 73
    14
 74
     0
 42
0.00000001
 43
0.00000001
 40
0.0
 40
0.0
 40
0.0
 40
0.0
 40
0.2499999999999999
 40
0.2499999999999999
 40
0.3749999999999998
 40
0.3749999999999998
 40
0.4999999999999998
 40
0.4999999999999998
 40
0.6249999999999998
 40
0.6249999999999998
 40
0.7499999999999997
 40
0.7499999999999997
 40
1.0
 40
1.0
 40
1.0
 40
1.0
 10
14.83991885922289
 20
-25.28663117621065
 30
0.0
 10
15.01238148614354
 20
-25.52396269710003
 30
0.0
 10
15.20685699770509
 20
-25.66026400992982
 30
0.0
 10
15.53928877137108
 20
-25.72548225157029
 30
0.0
 10
15.65708141613461
 20
-25.724599178476
 30
0.0
 10
15.91056492936832
 20
-25.7000024612468
 30
0.0
 10
16.04632471526044
 20
-25.67685269928601
 30
0.0
 10
16.34054046592529
 20
-25.64200118846285
 30
0.0
 10
16.49908734021725
 20
-25.6308594782612
 30
0.0
 10
16.84206632190541
 20
-25.64830480896341
 30
0.0
 10
17.02646577068796
 20
-25.67684161244957
 30
0.0
 10
17.61805470899558
 20
-25.83769566235906
 30
0.0
 10
18.06307542776419
 20
-26.04539095262223
 30
0.0
 10
18.55415723159997
 20
-26.3520851359975
 30
0.0
  0
SPLINE
  5
99
330
1F
100
AcDbEntity
  8
0
  6
Continuous
 62
     7
370
    25
100
AcDbSpline
210
0.0
220
0.0
230
1.0
 70
     8
 71
     3
 72
    18
 73
    14
 74
     0
 42
0.00000001
 43
0.00000001
 40
0.0
 40
0.0
 40
0.0
 40
0.0
 40
0.2499999999999992
 40
0.2499999999999992
 40
0.3749999999999998
 40
0.3749999999999998
 40
0.5000000000000003
 40
0.5000000000000003
 40
0.6250000000000009
 40
0.6250000000000009
 40
0.7500000000000014
 40
0.7500000000000014
 40
1.0
 40
1.0
 40
1.0
 40
1.0
 10
14.90784844674447
 20
-29.59305622655922
 30
0.0
 10
15.07298072390396
 20
-29.35194320794766
 30
0.0
 10
15.2631916280556
 20
-29.21075586223773
 30
0.0
 10
15.59345625974562
 20
-29.13620471828743
 30
0.0
 10
15.71121319747055
 20
-29.13363106776776
 30
0.0
 10
15.96530286767684
 20
-29.15052786276494
 30
0.0
 10
16.10168703007939
 20
-29.16943457986174
 30
0.0
 10
16.39676182997431
 20
-29.19499545362977
 30
0.0
 10
16.55552591828526
 20
-29.20108946010354
 30
0.0
 10
16.89766628441954
 20
-29.17279270902051
 30
0.0
 10
17.08101120644477
 20
-29.13845493574858
 30
0.0
 10
17.66704096138635
 20
-28.95918725088309
 30
0.0
 10
18.10515882442809
 20
-28.73788945915304
 30
0.0
 10
18.58619794626298
 20
-28.41642419246091
 30
0.0
  0
SPLINE
  5
9B
330
1F
100
AcDbEntity
  8
0
  6
Continuous
 62
     7
370
    25
100
AcDbSpline
210
0.0
220
0.0
230
1.0
 70
     8
 71
     3
 72
    18
 73
    14
 74
     0
 42
0.00000001
 43
0.00000001
 40
0.0
 40
0.0
 40
0.0
 40
0.0
 40
0.2500000000000008
 40
0.2500000000000008
 40
0.3750000000000007
 40
0.3750000000000007
 40
0.5000000000000006
 40
0.5000000000000006
 40
0.6250000000000003
 40
0.6250000000000003
 40
0.7500000000000002
 40
0.7500000000000002
 40
1.0
 40
1.0
 40
1.0
 40
1.0
 10
14.38818955621846
 20
-30.90581266807507
 30
0.0
 10
14.34232032190399
 20
-31.19558088936099
 30
0.0
 10
14.38345569212578
 20
-31.42947542476468
 30
0.0
 10
14.57240419233758
 20
-31.71065644683015
 30
0.0
 10
14.65632059710352
 20
-31.79332399765208
 30
0.0
 10
14.85295301369453
 20
-31.95517140314777
 30
0.0
 10
14.96531903258358
 20
-32.03479871470405
 30
0.0
 10
15.19800472472277
 20
-32.2181969275652
 30
0.0
 10
15.31799267357262
 20
-32.32242811873967
 30
0.0
 10
15.54817972580548
 20
-32.577286594258
 30
0.0
 10
15.65839125927937
 20
-32.72785526225529
 30
0.0
 10
15.9629668198385
 20
-33.25991280177804
 30
0.0
 10
16.13078123963399
 20
-33.72145271791252
 30
0.0
 10
16.26116297626233
 20
-34.28556552813345
 30
0.0
  0
SPLINE
  5
9E
330
1F
100
AcDbEntity
  8
0
  6
Continuous
 62
     7
370
    25
100
AcDbSpline
210
0.0
220
0.0
230
1.0
 70
     8
 71
     3
 72
    18
 73
    14
 74
     0
 42
0.00000001
 43
0.00000001
 40
0.0
 40
0.0
 40
0.0
 40
0.0
 40
0.2500000000000043
 40
0.2500000000000043
 40
0.3750000000000036
 40
0.3750000000000036
 40
0.5000000000000029
 40
0.5000000000000029
 40
0.6250000000000021
 40
0.6250000000000021
 40
0.7500000000000014
 40
0.7500000000000014
 40
1.0
 40
1.0
 40
1.0
 40
1.0
 10
11.39112045440401
 20
-33.99894854990914
 30
0.0
 10
11.67837929963896
 20
-33.94522200566163
 30
0.0
 10
11.91271328683141
 20
-33.97988685859792
 30
0.0
 10
12.19896130633029
 20
-34.16070356448488
 30
0.0
 10
12.28404789112566
 20
-34.24215044020558
 30
0.0
 10
12.45176859353266
 20
-34.43376680143731
 30
0.0
 10
12.53483769385611
 20
-34.54357403713604
 30
0.0
 10
12.72541281946416
 20
-34.77029770581155
 30
0.0
 10
12.83336686844194
 20
-34.8868699902575
 30
0.0
 10
13.09530546672629
 20
-35.10879095484815
 30
0.0
 10
13.24923037872608
 20
-35.21415492854013
 30
0.0
 10
13.79037740345528
 20
-35.50177916838798
 30
0.0
 10
14.25665470736431
 20
-35.65509412100089
 30
0.0
 10
14.82411103738094
 20
-35.76792988023933
 30
0.0
  0
SPLINE
  5
A0
330
1F
100
AcDbEntity
  8
0
  6
Continuous
 62
     7
370
    25
100
AcDbSpline
210
0.0
220
0.0
230
1.0
 70
     8
 71
     3
 72
    18
 73
    14
 74
     0
 42
0.00000001
 43
0.00000001
 40
0.0
 40
0.0
 40
0.0
 40
0.0
 40
0.2500000000000013
 40
0.2500000000000013
 40
0.3750000000000018
 40
0.3750000000000018
 40
0.5000000000000023
 40
0.5000000000000023
 40
0.6250000000000028
 40
0.6250000000000028
 40
0.7500000000000032
 40
0.7500000000000032
 40
1.0
 40
1.0
 40
1.0
 40
1.0
 10
10.09540736518803
 20
-34.55975315227522
 30
0.0
 10
9.858075844753508
 20
-34.73221578043914
 30
0.0
 10
9.721774531755305
 20
-34.92669129153414
 30
0.0
 10
9.656556289828385
 20
-35.25912306442261
 30
0.0
 10
9.65743936283334
 20
-35.37691570894541
 30
0.0
 10
9.682036079978653
 20
-35.63039922195593
 30
0.0
 10
9.705185841942377
 20
-35.76615900785829
 30
0.0
 10
9.740037352835737
 20
-36.06037475871277
 30
0.0
 10
9.751179063102393
 20
-36.21892163317752
 30
0.0
 10
9.733733732528009
 20
-36.56190061520059
 30
0.0
 10
9.705196929103995
 20
-36.74630006414337
 30
0.0
 10
9.544342879304414
 20
-37.33788900272861
 30
0.0
 10
9.336647589004256
 20
-37.78290972139114
 30
0.0
 10
9.029953405401288
 20
-38.2739915246523
 30
0.0
  0
SPLINE
  5
A3
330
1F
100
AcDbEntity
  8
0
  6
Continuous
 62
     7
370
    25
100
AcDbSpline
210
0.0
220
0.0
230
1.0
 70
     8
 71
     3
 72
    18
 73
    14
 74
     0
 42
0.00000001
 43
0.00000001
 40
0.0
 40
0.0
 40
0.0
 40
0.0
 40
0.2499999999999989
 40
0.2499999999999989
 40
0.3749999999999984
 40
0.3749999999999984
 40
0.4999999999999979
 40
0.4999999999999979
 40
0.6249999999999973
 40
0.6249999999999973
 40
0.7499999999999969
 40
0.7499999999999969
 40
1.0
 40
1.0
 40
1.0
 40
1.0
 10
5.788989253354889
 20
-34.6276875076888
 30
0.0
 10
6.03009982437155
 20
-34.79281988570457
 30
0.0
 10
6.171285098133461
 20
-34.98303077147719
 30
0.0
 10
6.245834205060311
 20
-35.31329527684415
 30
0.0
 10
6.248407382950218
 20
-35.43105215521149
 30
0.0
 10
6.231510134375364
 20
-35.68514166323678
 30
0.0
 10
6.212603432197064
 20
-35.82152572251636
 30
0.0
 10
6.18704285780387
 20
-36.11660024129566
 30
0.0
 10
6.180949129677765
 20
-36.27536415099939
 30
0.0
 10
6.209246378782897
 20
-36.6175040462238
 30
0.0
 10
6.243584364984761
 20
-36.80084867494004
 30
0.0
 10
6.422852339316332
 20
-37.3868773646831
 30
0.0
 10
6.644149852880334
 20
-37.82499427543089
 30
0.0
 10
6.96561434893785
 20
-38.30603223931525
 30
0.0
  0
SPLINE
  5
A5
330
1F
100
AcDbEntity
  8
0
  6
Continuous
 62
     7
370
    25
100
AcDbSpline
210
0.0
220
0.0
230
1.0
 70
     8
 71
     3
 72
    18
 73
    14
 74
     0
 42
0.00000001
 43
0.00000001
 40
0.0
 40
0.0
 40
0.0
 40
0.0
 40
0.2500000000000038
 40
0.2500000000000038
 40
0.3750000000000036
 40
0.3750000000000036
 40
0.5000000000000033
 40
0.5000000000000033
 40
0.6250000000000031
 40
0.6250000000000031
 40
0.7500000000000029
 40
0.7500000000000029
 40
1.0
 40
1.0
 40
1.0
 40
1.0
 10
4.476225873323738
 20
-34.10802384927081
 30
0.0
 10
4.186457652399422
 20
-34.0621546162066
 30
0.0
 10
3.952563116857551
 20
-34.10328998595957
 30
0.0
 10
3.671382094568111
 20
-34.29223848538935
 30
0.0
 10
3.588714543677802
 20
-34.37615488991275
 30
0.0
 10
3.426867138120196
 20
-34.57278730627753
 30
0.0
 10
3.347239826568019
 20
-34.68515332517602
 30
0.0
 10
3.163841613760935
 20
-34.91783901750593
 30
0.0
 10
3.059610422634425
 20
-35.03782696653079
 30
0.0
 10
2.804751947205936
 20
-35.26801401910565
 30
0.0
 10
2.654183279250093
 20
-35.37822555274467
 30
0.0
 10
2.122125739796235
 20
-35.68280111359476
 30
0.0
 10
1.660585823629332
 20
-35.85061553329042
 30
0.0
 10
1.096473013265254
 20
-35.98099726931457
 30
0.0
  0
SPLINE
  5
A8
330
1F
100
AcDbEntity
  8
0
  6
Continuous
 62
     7
370
    25
100
AcDbSpline
210
0.0
220
0.0
230
1.0
 70
     8
 71
     3
 72
    10
 73
     6
 74
     0
 42
0.00000001
 43
0.00000001
 40
0.0
 40
0.0
 40
0.0
 40
0.0
 40
0.5
 40
0.5
 40
1.0
 40
1.0
 40
1.0
 40
1.0
 10
1.244720675176633
 20
-31.91750858498138
 30
0.0
 10
0.9257907866080661
 20
-32.04008378997806
 30
0.0
 10
0.6279262192500131
 20
-32.30343220379575
 30
0.0
 10
0.0864563157284004
 20
-33.19272716179727
 30
0.0
 10
-0.158394965294021
 20
-33.81034743104701
 30
0.0
 10
-0.3858913387568101
 20
-34.5439453304337
 30
0.0
  0
SPLINE
  5
B0
330
1F
100
AcDbEntity
  8
0
  6
Continuous
 62
     7
370
    25
100
AcDbSpline
210
0.0
220
0.0
230
1.0
 70
     8
 71
     3
 72
    10
 73
     6
 74
     0
 42
0.00000001
 43
0.00000001
 40
0.0
 40
0.0
 40
0.0
 40
0.0
 40
0.5
 40
0.5
 40
1.0
 40
1.0
 40
1.0
 40
1.0
 10
1.112393517593997
 20
-23.391852327626
 30
0.0
 10
0.7898469864737624
 20
-23.27876907709803
 30
0.0
 10
0.4839696961249917
 20
-23.02446874825823
 30
0.0
 10
-0.0848461689832852
 20
-22.15210347323947
 30
0.0
 10
-0.3487700290894409
 20
-21.54238558494237
 30
0.0
 10
-0.5989587279159811
 20
-20.81630730631726
 30
0.0
  0
SPLINE
  5
B3
330
1F
100
AcDbEntity
  8
0
  6
Continuous
 62
     7
370
    25
100
AcDbSpline
210
0.0
220
0.0
230
1.0
 70
     8
 71
     3
 72
    18
 73
    14
 74
     0
 42
0.00000001
 43
0.00000001
 40
0.0
 40
0.0
 40
0.0
 40
0.0
 40
0.2499999999999997
 40
0.2499999999999997
 40
0.3749999999999997
 40
0.3749999999999997
 40
0.4999999999999998
 40
0.4999999999999998
 40
0.6249999999999998
 40
0.6249999999999998
 40
0.7499999999999999
 40
0.7499999999999999
 40
1.0
 40
1.0
 40
1.0
 40
1.0
 10
4.271078733830948
 20
-21.10292523093726
 30
0.0
 10
3.983820901767944
 20
-21.15665067431888
 30
0.0
 10
3.749487817251124
 20
-21.12198493397176
 30
0.0
 10
3.463240732379563
 20
-20.94116740215428
 30
0.0
 10
3.378154377526896
 20
-20.85972034770586
 30
0.0
 10
3.21043394156165
 20
-20.66810386014502
 30
0.0
 10
3.127364879649793
 20
-20.55829667518906
 30
0.0
 10
2.936789746828608
 20
-20.33157325671883
 30
0.0
 10
2.828835655127614
 20
-20.21500116936266
 30
0.0
 10
2.56689704578782
 20
-19.99308062262503
 30
0.0
 10
2.412972168802803
 20
-19.88771686721717
 30
0.0
 10
1.871825479886423
 20
-19.60009321107206
 30
0.0
 10
1.405548707769976
 20
-19.44677854826889
 30
0.0
 10
0.8380932109654654
 20
-19.3339429542117
 30
0.0
  0
CIRCLE
  5
B5
330
1F
100
AcDbEntity
  8
0
  6
Continuous
 62
     7
370
    25
100
AcDbCircle
 10
198.4127715348
 20
178.4908120679
 30
0.0
 40
3.529999999999973
  0
CIRCLE
  5
B6
330
1F
100
AcDbEntity
  8
0
  6
Continuous
 62
     7
370
    25
100
AcDbCircle
 10
198.4127715348
 20
138.1517046139
 30
0.0
 40
3.529999999999973
  0
CIRCLE
  5
B7
330
1F
100
AcDbEntity
  8
0
  6
Continuous
 62
     7
370
    25
100
AcDbCircle
 10
159.132603089
 20
19.1622977174
 30
0.0
 40
3.53000000000003
  0
CIRCLE
  5
B8
330
1F
100
AcDbEntity
  8
0
  6
Continuous
 62
     7
370
    25
100
AcDbCircle
 10
29.1415385719
 20
138.1517046139
 30
0.0
 40
3.530000000000005
  0
CIRCLE
  5
B9
330
1F
100
AcDbEntity
  8
0
  6
Continuous
 62
     7
370
    25
100
AcDbCircle
 10
29.1415385719
 20
178.4908120679
 30
0.0
 40
3.529999999999976
  0
CIRCLE
  5
BA
330
1F
100
AcDbEntity
  8
0
  6
Continuous
 62
     7
370
    25
100
AcDbCircle
 10
68.4217070177
 20
19.1622977174
 30
0.0
 40
3.530000000000001
  0
CIRCLE
  5
BB
330
1F
100
AcDbEntity
  8
0
  6
Continuous
 62
     7
370
    25
100
AcDbCircle
 10
34.0176546803
 20
49.5022914066
 30
0.0
 40
3.530000000000001
  0
CIRCLE
  5
BD
330
1F
100
AcDbEntity
  8
0
  6
Continuous
 62
     7
370
    25
100
AcDbCircle
 10
138.7265780654
 20
178.4908120679
 30
0.0
 40
1.49984223515159
  0
CIRCLE
  5
BE
330
1F
100
AcDbEntity
  8
0
  6
Continuous
 62
     7
370
    25
100
AcDbCircle
 10
88.7265337713
 20
178.4908120679
 30
0.0
 40
1.499950886606058
  0
CIRCLE
  5
BF
330
1F
100
AcDbEntity
  8
0
  6
Continuous
 62
     7
370
    25
100
AcDbCircle
 10
94.7771550534
 20
107.3732180014
 30
0.0
 40
1.325000000000003
  0
CIRCLE
  5
C0
330
1F
100
AcDbEntity
  8
0
  6
Continuous
 62
     7
370
    25
100
AcDbCircle
 10
88.7265337713
 20
128.4908120679
 30
0.0
 40
1.499950886606072
  0
CIRCLE
  5
C1
330
1F
100
AcDbEntity
  8
0
  6
Continuous
 62
     7
370
    25
100
AcDbCircle
 10
145.5771550534
 20
64.2732180014
 30
0.0
 40
1.325000000000045
  0
CIRCLE
  5
C2
330
1F
100
AcDbEntity
  8
0
  6
Continuous
 62
     7
370
    25
100
AcDbCircle
 10
138.7265780654
 20
128.4908120679
 30
0.0
 40
1.49991144444104
  0
CIRCLE
  5
C3
330
1F
100
AcDbEntity
  8
0
  6
Continuous
 62
     7
370
    25
100
AcDbCircle
 10
145.5771550534
 20
92.1732180014
 30
0.0
 40
1.32499999999996
  0
CIRCLE
  5
C4
330
1F
100
AcDbEntity
  8
0
  6
Continuous
 62
     7
370
    25
100
AcDbCircle
 10
93.4771550534
 20
59.0732180014
 30
0.0
 40
1.325000000000017
  0
CIRCLE
  5
C6
330
1F
100
AcDbEntity
  8
0
  6
Continuous
 62
     7
370
    25
100
AcDbCircle
 10
193.5366554264
 20
49.5022914066
 30
0.0
 40
3.530000000000001
  0
CIRCLE
  5
D5
330
1F
100
AcDbEntity
  8
0
  6
Continuous
 62
     7
370
    25
100
AcDbCircle
 10
2.5297596877
 20
178.3849305467
 30
0.0
 40
3.529999999999975
  0
CIRCLE
  5
D6
330
1F
100
AcDbEntity
  8
0
  6
Continuous
 62
     7
370
    25
100
AcDbCircle
 10
2.5297596877
 20
138.0458230927
 30
0.0
 40
3.530000000000018
  0
CIRCLE
  5
D7
330
1F
100
AcDbEntity
  8
0
  6
Continuous
 62
     7
370
    25
100
AcDbCircle
 10
-36.750408758
 20
19.0564161962
 30
0.0
 40
3.529999999999987
  0
CIRCLE
  5
D8
330
1F
100
AcDbEntity
  8
0
  6
Continuous
 62
     7
370
    25
100
AcDbCircle
 10
-166.7414732751
 20
138.0458230927
 30
0.0
 40
3.53000000000003
  0
CIRCLE
  5
D9
330
1F
100
AcDbEntity
  8
0
  6
Continuous
 62
     7
370
    25
100
AcDbCircle
 10
-166.7414732751
 20
178.3849305467
 30
0.0
 40
3.530000000000058
  0
CIRCLE
  5
DA
330
1F
100
AcDbEntity
  8
0
  6
Continuous
 62
     7
370
    25
100
AcDbCircle
 10
-127.4613048294
 20
19.0564161962
 30
0.0
 40
3.529999999999987
  0
CIRCLE
  5
DB
330
1F
100
AcDbEntity
  8
0
  6
Continuous
 62
     7
370
    25
100
AcDbCircle
 10
-161.8653571667
 20
49.3964098854
 30
0.0
 40
3.529999999999973
  0
CIRCLE
  5
DD
330
1F
100
AcDbEntity
  8
0
  6
Continuous
 62
     7
370
    25
100
AcDbCircle
 10
-57.1564337817
 20
178.3849305467
 30
0.0
 40
1.499842235151583
  0
CIRCLE
  5
DE
330
1F
100
AcDbEntity
  8
0
  6
Continuous
 62
     7
370
    25
100
AcDbCircle
 10
-107.1564780758
 20
178.3849305467
 30
0.0
 40
1.499950886606086
  0
CIRCLE
  5
DF
330
1F
100
AcDbEntity
  8
0
  6
Continuous
 62
     7
370
    25
100
AcDbCircle
 10
-101.1058567937
 20
107.2673364802
 30
0.0
 40
1.325000000000003
  0
CIRCLE
  5
E0
330
1F
100
AcDbEntity
  8
0
  6
Continuous
 62
     7
370
    25
100
AcDbCircle
 10
-107.1564780758
 20
128.3849305467
 30
0.0
 40
1.49995088660603
  0
CIRCLE
  5
E1
330
1F
100
AcDbEntity
  8
0
  6
Continuous
 62
     7
370
    25
100
AcDbCircle
 10
-50.3058567937
 20
64.1673364802
 30
0.0
 40
1.324999999999982
  0
CIRCLE
  5
E2
330
1F
100
AcDbEntity
  8
0
  6
Continuous
 62
     7
370
    25
100
AcDbCircle
 10
-57.1564337817
 20
128.3849305467
 30
0.0
 40
1.499911444441054
  0
CIRCLE
  5
E3
330
1F
100
AcDbEntity
  8
0
  6
Continuous
 62
     7
370
    25
100
AcDbCircle
 10
-50.3058567937
 20
92.0673364802
 30
0.0
 40
1.324999999999982
  0
CIRCLE
  5
E4
330
1F
100
AcDbEntity
  8
0
  6
Continuous
 62
     7
370
    25
100
AcDbCircle
 10
-102.4058567937
 20
58.9673364802
 30
0.0
 40
1.325000000000017
  0
CIRCLE
  5
E6
330
1F
100
AcDbEntity
  8
0
  6
Continuous
 62
     7
370
    25
100
AcDbCircle
 10
-2.3463564207
 20
49.3964098854
 30
0.0
 40
3.529999999999995
  0
CIRCLE
  5
F5
330
1F
100
AcDbEntity
  8
0
  6
Continuous
 62
     7
370
    25
100
AcDbCircle
 10
27.4178656025
 20
-3.6883387208
 30
0.0
 40
1.499890897853522
  0
CIRCLE
  5
F7
330
1F
100
AcDbEntity
  8
0
  6
Continuous
 62
     7
370
    25
100
AcDbCircle
 10
36.2273430766
 20
-3.6882887208
 30
0.0
 40
1.324906007899308
  0
SPLINE
  5
F9
330
1F
100
AcDbEntity
  8
0
  6
Continuous
 62
     7
370
    25
100
AcDbSpline
210
0.0
220
0.0
230
1.0
 70
     8
 71
     3
 72
    18
 73
    14
 74
     0
 42
0.00000001
 43
0.00000001
 40
0.0
 40
0.0
 40
0.0
 40
0.0
 40
0.2499999999999977
 40
0.2499999999999977
 40
0.3749999999999984
 40
0.3749999999999984
 40
0.4999999999999991
 40
0.4999999999999991
 40
0.6249999999999998
 40
0.6249999999999998
 40
0.7500000000000006
 40
0.7500000000000006
 40
1.0
 40
1.0
 40
1.0
 40
1.0
 10
21.80924731261807
 20
1.086239686476115
 30
0.0
 10
21.56085318314257
 20
0.932787179667216
 30
0.0
 10
21.33020665875586
 20
0.8811332598250565
 30
0.0
 10
20.999036314901
 20
0.9478985364162196
 30
0.0
 10
20.89070941701186
 20
0.9937285671266782
 30
0.0
 10
20.66604595705337
 20
1.113323099424981
 30
0.0
 10
20.54943231386316
 20
1.18659339212121
 30
0.0
 10
20.29078762817874
 20
1.331254625654532
 30
0.0
 10
20.1484606316252
 20
1.402163569278261
 30
0.0
 10
19.82475381289388
 20
1.517229002326564
 30
0.0
 10
19.64342399254754
 20
1.561420352180626
 30
0.0
 10
19.03536375106319
 20
1.639268900517757
 30
0.0
 10
18.54503189168697
 20
1.617862706180917
 30
0.0
 10
17.97453967465534
 20
1.522753685508513
 30
0.0
  0
SPLINE
  5
FB
330
1F
100
AcDbEntity
  8
0
  6
Continuous
 62
     7
370
    25
100
AcDbSpline
210
0.0
220
0.0
230
1.0
 70
     8
 71
     3
 72
    18
 73
    14
 74
     0
 42
0.00000001
 43
0.00000001
 40
0.0
 40
0.0
 40
0.0
 40
0.0
 40
0.2500000000000008
 40
0.2500000000000008
 40
0.3750000000000006
 40
0.3750000000000006
 40
0.5000000000000004
 40
0.5000000000000004
 40
0.6250000000000002
 40
0.6250000000000002
 40
0.7500000000000001
 40
0.7500000000000001
 40
1.0
 40
1.0
 40
1.0
 40
1.0
 10
22.8216827662907
 20
2.067380298133386
 30
0.0
 10
22.9828562454057
 20
2.310835478096005
 30
0.0
 10
23.04172423572703
 20
2.539747047187499
 30
0.0
 10
22.98538661414234
 20
2.872849841206365
 30
0.0
 10
22.94297932420686
 20
2.982561874717335
 30
0.0
 10
22.83049544426328
 20
3.210868465026662
 30
0.0
 10
22.76092151664801
 20
3.329724454219363
 30
0.0
 10
22.62444988723717
 20
3.592782319074936
 30
0.0
 10
22.5580432345559
 20
3.737264874070903
 30
0.0
 10
22.45319498993118
 20
4.064423862759722
 30
0.0
 10
22.41471698528124
 20
4.247051413457228
 30
0.0
 10
22.35599255853553
 20
4.85725555569852
 30
0.0
 10
22.39277871708248
 20
5.346673920743172
 30
0.0
 10
22.50574745645648
 20
5.91389976643203
 30
0.0
  0
SPLINE
  5
FE
330
1F
100
AcDbEntity
  8
0
  6
Continuous
 62
     7
370
    25
100
AcDbSpline
210
0.0
220
0.0
230
1.0
 70
     8
 71
     3
 72
    18
 73
    14
 74
     0
 42
0.00000001
 43
0.00000001
 40
0.0
 40
0.0
 40
0.0
 40
0.0
 40
0.2500000000000006
 40
0.2500000000000006
 40
0.3750000000000002
 40
0.3750000000000002
 40
0.4999999999999999
 40
0.4999999999999999
 40
0.6249999999999996
 40
0.6249999999999996
 40
0.7499999999999993
 40
0.7499999999999993
 40
1.0
 40
1.0
 40
1.0
 40
1.0
 10
26.82811034577074
 20
3.653690074156321
 30
0.0
 10
26.54396186431191
 20
3.720823939213413
 30
0.0
 10
26.34434530585011
 20
3.847390823724164
 30
0.0
 10
26.15738268976932
 20
4.128773799509308
 30
0.0
 10
26.11319073116945
 20
4.237779209119011
 30
0.0
 10
26.03889577990974
 20
4.481206369952168
 30
0.0
 10
26.00824740285208
 20
4.615474588657229
 30
0.0
 10
25.9276489309036
 20
4.900654939005836
 30
0.0
 10
25.87714874139273
 20
5.051435518273848
 30
0.0
 10
25.72961700278218
 20
5.361694352849722
 30
0.0
 10
25.63264546036227
 20
5.521161901569899
 30
0.0
 10
25.25772917673276
 20
6.006172658069159
 30
0.0
 10
24.89587572876446
 20
6.33775317569861
 30
0.0
 10
24.42522457989808
 20
6.673899857626273
 30
0.0
  0
SPLINE
  5
100
330
1F
100
AcDbEntity
  8
0
  6
Continuous
 62
     7
370
    25
100
AcDbSpline
210
0.0
220
0.0
230
1.0
 70
     8
 71
     3
 72
    18
 73
    14
 74
     0
 42
0.00000001
 43
0.00000001
 40
0.0
 40
0.0
 40
0.0
 40
0.0
 40
0.25
 40
0.25
 40
0.375
 40
0.375
 40
0.5
 40
0.5
 40
0.625
 40
0.625
 40
0.75
 40
0.75
 40
1.0
 40
1.0
 40
1.0
 40
1.0
 10
28.23778150037662
 20
3.63156127915111
 30
0.0
 10
28.5238971692001
 20
3.689743227541592
 30
0.0
 10
28.727388047109
 20
3.809982195277908
 30
0.0
 10
28.92309057724635
 20
4.085358154174851
 30
0.0
 10
28.97068221780212
 20
4.192922759383391
 30
0.0
 10
29.05258124167751
 20
4.433898011912573
 30
0.0
 10
29.08742892160295
 20
4.567138083866551
 30
0.0
 10
29.1769389071144
 20
4.849648098507464
 30
0.0
 10
29.23214690711927
 20
4.998769287296422
 30
0.0
 10
29.38934434185964
 20
5.304244531412122
 30
0.0
 10
29.49127346342527
 20
5.460589768913657
 30
0.0
 10
29.88122851004834
 20
5.933593696093836
 30
0.0
 10
30.25331129697128
 20
6.253652998710016
 30
0.0
 10
30.73428150037668
 20
6.574861279151134
 30
0.0
  0
SPLINE
  5
103
330
1F
100
AcDbEntity
  8
0
  6
Continuous
 62
     7
370
    25
100
AcDbSpline
210
0.0
220
0.0
230
1.0
 70
     8
 71
     3
 72
    18
 73
    14
 74
     0
 42
0.00000001
 43
0.00000001
 40
0.0
 40
0.0
 40
0.0
 40
0.0
 40
0.2499999999999998
 40
0.2499999999999998
 40
0.3749999999999999
 40
0.3749999999999999
 40
0.5
 40
0.5
 40
0.6250000000000001
 40
0.6250000000000001
 40
0.7500000000000002
 40
0.7500000000000002
 40
1.0
 40
1.0
 40
1.0
 40
1.0
 10
32.19244400984797
 20
1.920279569056285
 30
0.0
 10
32.03899150311632
 20
2.168673698197676
 30
0.0
 10
31.9873375832443
 20
2.399320222709528
 30
0.0
 10
32.05410285978811
 20
2.73049056677295
 30
0.0
 10
32.09993289048352
 20
2.838817464730178
 30
0.0
 10
32.21952742276626
 20
3.063480924759068
 30
0.0
 10
32.29279771546197
 20
3.180094567952485
 30
0.0
 10
32.43745894900724
 20
3.438739253584441
 30
0.0
 10
32.50836789264309
 20
3.581066250083198
 30
0.0
 10
32.62343332571758
 20
3.904773068691345
 30
0.0
 10
32.66762467558547
 20
4.086102888970239
 30
0.0
 10
32.74547322394864
 20
4.694163130320423
 30
0.0
 10
32.72406702960615
 20
5.184494989712435
 30
0.0
 10
32.6289580088804
 20
5.754987207018933
 30
0.0
  0
SPLINE
  5
112
330
1F
100
AcDbEntity
  8
0
  6
Continuous
 62
     7
370
    25
100
AcDbSpline
210
0.0
220
0.0
230
1.0
 70
     8
 71
     3
 72
    18
 73
    14
 74
     0
 42
0.00000001
 43
0.00000001
 40
0.0
 40
0.0
 40
0.0
 40
0.0
 40
0.2499999999999983
 40
0.2499999999999983
 40
0.3749999999999984
 40
0.3749999999999984
 40
0.4999999999999986
 40
0.4999999999999986
 40
0.6249999999999987
 40
0.6249999999999987
 40
0.7499999999999988
 40
0.7499999999999988
 40
1.0
 40
1.0
 40
1.0
 40
1.0
 10
32.01404843875563
 20
-9.444057739830965
 30
0.0
 10
31.85287495927151
 20
-9.687512920381627
 30
0.0
 10
31.79400696908748
 20
-9.916424489259931
 30
0.0
 10
31.85034459090359
 20
-10.24952728290517
 30
0.0
 10
31.89275188091444
 20
-10.35923931629225
 30
0.0
 10
32.00523576093448
 20
-10.58754590647129
 30
0.0
 10
32.07480968855221
 20
-10.70640189565604
 30
0.0
 10
32.21128131790487
 20
-10.96945976060663
 30
0.0
 10
32.27768797052646
 20
-11.11394231570401
 30
0.0
 10
32.38253621502083
 20
-11.44110130462481
 30
0.0
 10
32.42101421960115
 20
-11.62372885545099
 30
0.0
 10
32.47973864621222
 20
-12.23393299795018
 30
0.0
 10
32.44295248768887
 20
-12.72335136296321
 30
0.0
 10
32.32998374858984
 20
-13.29057720812957
 30
0.0
  0
SPLINE
  5
116
330
1F
100
AcDbEntity
  8
0
  6
Continuous
 62
     7
370
    25
100
AcDbSpline
210
0.0
220
0.0
230
1.0
 70
     8
 71
     3
 72
    18
 73
    14
 74
     0
 42
0.00000001
 43
0.00000001
 40
0.0
 40
0.0
 40
0.0
 40
0.0
 40
0.2500000000000007
 40
0.2500000000000007
 40
0.3750000000000007
 40
0.3750000000000007
 40
0.5000000000000008
 40
0.5000000000000008
 40
0.6250000000000008
 40
0.6250000000000008
 40
0.7500000000000008
 40
0.7500000000000008
 40
1.0
 40
1.0
 40
1.0
 40
1.0
 10
26.59794970466976
 20
-11.00823872084874
 30
0.0
 10
26.31183403542297
 20
-11.06642066993563
 30
0.0
 10
26.10834315767266
 20
-11.18665963740982
 30
0.0
 10
25.91264062779988
 20
-11.46203559587221
 30
0.0
 10
25.8650489873293
 20
-11.56960020094261
 30
0.0
 10
25.78314996353934
 20
-11.81057545333679
 30
0.0
 10
25.74830228361573
 20
-11.94381552529072
 30
0.0
 10
25.65879229803792
 20
-12.22632554003968
 30
0.0
 10
25.60358429796655
 20
-12.37544672893373
 30
0.0
 10
25.44638686308301
 20
-12.68092197326852
 30
0.0
 10
25.34445774144192
 20
-12.83726721088244
 30
0.0
 10
24.95450269467477
 20
-13.31027113827099
 30
0.0
 10
24.58241990778107
 20
-13.63033044083428
 30
0.0
 10
24.10144970466972
 20
-13.95153872084877
 30
0.0
  0
SPLINE
  5
119
330
1F
100
AcDbEntity
  8
0
  6
Continuous
 62
     7
370
    25
100
AcDbSpline
210
0.0
220
0.0
230
1.0
 70
     8
 71
     3
 72
    18
 73
    14
 74
     0
 42
0.00000001
 43
0.00000001
 40
0.0
 40
0.0
 40
0.0
 40
0.0
 40
0.2500000000000014
 40
0.2500000000000014
 40
0.3750000000000012
 40
0.3750000000000012
 40
0.500000000000001
 40
0.500000000000001
 40
0.6250000000000007
 40
0.6250000000000007
 40
0.7500000000000006
 40
0.7500000000000006
 40
1.0
 40
1.0
 40
1.0
 40
1.0
 10
22.64328719519833
 20
-9.296957010754017
 30
0.0
 10
22.79673970154284
 20
-9.545351140441166
 30
0.0
 10
22.84839362156091
 20
-9.775997664754732
 30
0.0
 10
22.78162834525825
 20
-10.1071680084715
 30
0.0
 10
22.73579831463967
 20
-10.21549490631446
 30
0.0
 10
22.61620378243263
 20
-10.4401583662241
 30
0.0
 10
22.54293348973744
 20
-10.5567720094112
 30
0.0
 10
22.39827225613243
 20
-10.81541669513106
 30
0.0
 10
22.32736331243768
 20
-10.95774369172248
 30
0.0
 10
22.21229787923819
 20
-11.28145051054112
 30
0.0
 10
22.1681065293051
 20
-11.46278033093623
 30
0.0
 10
22.09025798081747
 20
-12.07084057251946
 30
0.0
 10
22.11166417518397
 20
-12.56117243188509
 30
0.0
 10
22.20677319616592
 20
-13.13166464871661
 30
0.0
  0
SPLINE
  5
11B
330
1F
100
AcDbEntity
  8
0
  6
Continuous
 62
     7
370
    25
100
AcDbSpline
210
0.0
220
0.0
230
1.0
 70
     8
 71
     3
 72
    18
 73
    14
 74
     0
 42
0.00000001
 43
0.00000001
 40
0.0
 40
0.0
 40
0.0
 40
0.0
 40
0.2499999999999977
 40
0.2499999999999977
 40
0.3749999999999984
 40
0.3749999999999984
 40
0.4999999999999992
 40
0.4999999999999992
 40
0.625
 40
0.625
 40
0.7500000000000007
 40
0.7500000000000007
 40
1.0
 40
1.0
 40
1.0
 40
1.0
 10
21.6621465835409
 20
-8.284521557081218
 30
0.0
 10
21.41869140297049
 20
-8.123348078144007
 30
0.0
 10
21.18977983410404
 20
-8.064480087757717
 30
0.0
 10
20.85667704046767
 20
-8.120817709229566
 30
0.0
 10
20.74696500708042
 20
-8.163224999129081
 30
0.0
 10
20.5186584168961
 20
-8.275708879037058
 30
0.0
 10
20.39980242770692
 20
-8.345282806651754
 30
0.0
 10
20.13674456275556
 20
-8.481754436090338
 30
0.0
 10
19.99226200766233
 20
-8.548161088799272
 30
0.0
 10
19.66510301876074
 20
-8.653009333484757
 30
0.0
 10
19.48247546794926
 20
-8.691487338167644
 30
0.0
 10
18.87227132548626
 20
-8.750211764978532
 30
0.0
 10
18.38285296047941
 20
-8.713425606422756
 30
0.0
 10
17.81562711524234
 20
-8.600456866915462
 30
0.0
  0
SPLINE
  5
11E
330
1F
100
AcDbEntity
  8
0
  6
Continuous
 62
     7
370
    25
100
AcDbSpline
210
0.0
220
0.0
230
1.0
 70
     8
 71
     3
 72
    18
 73
    14
 74
     0
 42
0.00000001
 43
0.00000001
 40
0.0
 40
0.0
 40
0.0
 40
0.0
 40
0.2499999999999981
 40
0.2499999999999981
 40
0.3749999999999985
 40
0.3749999999999985
 40
0.4999999999999989
 40
0.4999999999999989
 40
0.6249999999999992
 40
0.6249999999999992
 40
0.7499999999999997
 40
0.7499999999999997
 40
1.0
 40
1.0
 40
1.0
 40
1.0
 10
20.07583680751803
 20
-4.278093977601261
 30
0.0
 10
20.00870294203327
 20
-4.562242459185267
 30
0.0
 10
19.88213605767719
 20
-4.761859017604203
 30
0.0
 10
19.60075308216441
 20
-4.948821633602981
 30
0.0
 10
19.49174767264424
 20
-4.993013592175258
 30
0.0
 10
19.24832051190363
 20
-5.067308543406382
 30
0.0
 10
19.11405229320308
 20
-5.097956920462512
 30
0.0
 10
18.82887194278571
 20
-5.178555392432102
 30
0.0
 10
18.67809136344556
 20
-5.229055581965208
 30
0.0
 10
18.36783252870733
 20
-5.376587320626195
 30
0.0
 10
18.20836497989805
 20
-5.473558863074018
 30
0.0
 10
17.72335422322127
 20
-5.848475146760193
 30
0.0
 10
17.39177370561357
 20
-6.210328594722994
 30
0.0
 10
17.05562702404814
 20
-6.680979743473883
 30
0.0
  0
SPLINE
  5
120
330
1F
100
AcDbEntity
  8
0
  6
Continuous
 62
     7
370
    25
100
AcDbSpline
210
0.0
220
0.0
230
1.0
 70
     8
 71
     3
 72
    18
 73
    14
 74
     0
 42
0.00000001
 43
0.00000001
 40
0.0
 40
0.0
 40
0.0
 40
0.0
 40
0.2499999999999998
 40
0.2499999999999998
 40
0.3749999999999998
 40
0.3749999999999998
 40
0.4999999999999999
 40
0.4999999999999999
 40
0.6249999999999999
 40
0.6249999999999999
 40
0.7499999999999999
 40
0.7499999999999999
 40
1.0
 40
1.0
 40
1.0
 40
1.0
 10
20.09796560252325
 20
-2.868422822995292
 30
0.0
 10
20.03978365351665
 20
-2.582307154146451
 30
0.0
 10
19.91954468600948
 20
-2.378816276250112
 30
0.0
 10
19.6441687274994
 20
-2.183113746126078
 30
0.0
 10
19.5366041224149
 20
-2.135522105572898
 30
0.0
 10
19.29562887000903
 20
-2.05362308169689
 30
0.0
 10
19.16238879805686
 20
-2.018775401768647
 30
0.0
 10
18.87987878331954
 20
-1.929265416254197
 30
0.0
 10
18.73075759443457
 20
-1.874057416249852
 30
0.0
 10
18.42528235011353
 20
-1.716859981518826
 30
0.0
 10
18.26893711250419
 20
-1.614930859961894
 30
0.0
 10
17.79593318511889
 20
-1.224975813361853
 30
0.0
 10
17.47587388254571
 20
-0.8528930264471851
 30
0.0
 10
17.15466560252315
 20
-0.3719228229953214
 30
0.0
  0
SPLINE
  5
121
330
1F
100
AcDbEntity
  8
0
  6
Continuous
 62
     7
370
    25
100
AcDbSpline
210
0.0
220
0.0
230
1.0
 70
     8
 71
     3
 72
    18
 73
    14
 74
     0
 42
0.00000001
 43
0.00000001
 40
0.0
 40
0.0
 40
0.0
 40
0.0
 40
0.2499999999999987
 40
0.2499999999999987
 40
0.3749999999999988
 40
0.3749999999999988
 40
0.499999999999999
 40
0.499999999999999
 40
0.6249999999999991
 40
0.6249999999999991
 40
0.7499999999999992
 40
0.7499999999999992
 40
1.0
 40
1.0
 40
1.0
 40
1.0
 10
28.0076327823767
 20
-11.03036655811009
 30
0.0
 10
28.29170674409336
 20
-11.09750640962687
 30
0.0
 10
28.4913858989723
 20
-11.22406826577081
 30
0.0
 10
28.67834851527691
 20
-11.50545124120662
 30
0.0
 10
28.72254047394867
 20
-11.6144566507053
 30
0.0
 10
28.79683542528124
 20
-11.85788381142937
 30
0.0
 10
28.82748380234111
 20
-11.99215203013385
 30
0.0
 10
28.90808227423393
 20
-12.27733238056897
 30
0.0
 10
28.95858246368803
 20
-12.42811295992191
 30
0.0
 10
29.10611420217406
 20
-12.73837179467727
 30
0.0
 10
29.20308574452728
 20
-12.89783934349069
 30
0.0
 10
29.57800202802704
 20
-13.38285010016628
 30
0.0
 10
29.93985547601681
 20
-13.71443061775775
 30
0.0
 10
30.41050662514828
 20
-14.05057729932377
 30
0.0
  0
CIRCLE
  5
122
330
1F
100
AcDbEntity
  8
0
  6
Continuous
 62
     7
370
    25
100
AcDbCircle
 10
6.4541263929
 20
-3.4773900021
 30
0.0
 40
1.50005000083328
  0
SPLINE
  5
128
330
1F
100
AcDbEntity
  8
0
  6
Continuous
 62
     7
370
    25
100
AcDbSpline
210
0.0
220
0.0
230
1.0
 70
     8
 71
     3
 72
    18
 73
    14
 74
     0
 42
0.00000001
 43
0.00000001
 40
0.0
 40
0.0
 40
0.0
 40
0.0
 40
0.25
 40
0.25
 40
0.375
 40
0.375
 40
0.5
 40
0.5
 40
0.625
 40
0.625
 40
0.75
 40
0.75
 40
1.0
 40
1.0
 40
1.0
 40
1.0
 10
13.46294312799957
 20
-1.213084761061994
 30
0.0
 10
13.63540575492021
 20
-1.450416281951361
 30
0.0
 10
13.82988126648175
 20
-1.586717594781142
 30
0.0
 10
14.16231304014777
 20
-1.651935836421647
 30
0.0
 10
14.28010568491128
 20
-1.651052763327346
 30
0.0
 10
14.53358919814502
 20
-1.626456046098165
 30
0.0
 10
14.6693489840371
 20
-1.603306284137365
 30
0.0
 10
14.963564734702
 20
-1.568454773314187
 30
0.0
 10
15.12211160899393
 20
-1.557313063112534
 30
0.0
 10
15.46509059068209
 20
-1.574758393814768
 30
0.0
 10
15.64949003946462
 20
-1.603295197300902
 30
0.0
 10
16.24107897777226
 20
-1.764149247210411
 30
0.0
 10
16.68609969654086
 20
-1.971844537473566
 30
0.0
 10
17.17718150037665
 20
-2.278538720848849
 30
0.0
  0
SPLINE
  5
12B
330
1F
100
AcDbEntity
  8
0
  6
Continuous
 62
     7
370
    25
100
AcDbSpline
210
0.0
220
0.0
230
1.0
 70
     8
 71
     3
 72
    18
 73
    14
 74
     0
 42
0.00000001
 43
0.00000001
 40
0.0
 40
0.0
 40
0.0
 40
0.0
 40
0.25
 40
0.25
 40
0.375
 40
0.375
 40
0.5
 40
0.5
 40
0.625
 40
0.625
 40
0.75
 40
0.75
 40
1.0
 40
1.0
 40
1.0
 40
1.0
 10
13.53087271552156
 20
-5.519509811410847
 30
0.0
 10
13.69600499268097
 20
-5.278396792799095
 30
0.0
 10
13.8862158968326
 20
-5.137209447089133
 30
0.0
 10
14.21648052852256
 20
-5.062658303138762
 30
0.0
 10
14.33423746624747
 20
-5.060084652619034
 30
0.0
 10
14.58832713645375
 20
-5.076981447616189
 30
0.0
 10
14.72471129885627
 20
-5.095888164712986
 30
0.0
 10
15.01978609875115
 20
-5.121449038481024
 30
0.0
 10
15.17855018706208
 20
-5.127543044954816
 30
0.0
 10
15.52069055319633
 20
-5.09924629387179
 30
0.0
 10
15.70403547522155
 20
-5.064908520599889
 30
0.0
 10
16.29006523016308
 20
-4.885640835734423
 30
0.0
 10
16.72818309320478
 20
-4.66434304400437
 30
0.0
 10
17.20922221503965
 20
-4.342877777312265
 30
0.0
  0
SPLINE
  5
12D
330
1F
100
AcDbEntity
  8
0
  6
Continuous
 62
     7
370
    25
100
AcDbSpline
210
0.0
220
0.0
230
1.0
 70
     8
 71
     3
 72
    18
 73
    14
 74
     0
 42
0.00000001
 43
0.00000001
 40
0.0
 40
0.0
 40
0.0
 40
0.0
 40
0.2499999999999999
 40
0.2499999999999999
 40
0.3749999999999999
 40
0.3749999999999999
 40
0.4999999999999998
 40
0.4999999999999998
 40
0.6249999999999998
 40
0.6249999999999998
 40
0.7499999999999997
 40
0.7499999999999997
 40
1.0
 40
1.0
 40
1.0
 40
1.0
 10
12.90213567413176
 20
0.082643574617472
 30
0.0
 10
12.84841244753721
 20
0.369899366829532
 30
0.0
 10
12.88307997407672
 20
0.6042306342819437
 30
0.0
 10
13.06389916809615
 20
0.8904758378680266
 30
0.0
 10
13.14534658217056
 20
0.9755617299044284
 30
0.0
 10
13.33696332383783
 20
1.143281629606793
 30
0.0
 10
13.44677040660913
 20
1.226350614220009
 30
0.0
 10
13.67349332151061
 20
1.416925761515031
 30
0.0
 10
13.79006501226023
 20
1.524879939145587
 30
0.0
 10
14.01198471822691
 20
1.786818570518142
 30
0.0
 10
14.11734803445703
 20
1.940743376871154
 30
0.0
 10
14.40497051609653
 20
2.481889389444047
 30
0.0
 10
14.55828459550026
 20
2.948165090996338
 30
0.0
 10
14.67111985596365
 20
3.515618911130808
 30
0.0
  0
SPLINE
  5
130
330
1F
100
AcDbEntity
  8
0
  6
Continuous
 62
     7
370
    25
100
AcDbSpline
210
0.0
220
0.0
230
1.0
 70
     8
 71
     3
 72
    18
 73
    14
 74
     0
 42
0.00000001
 43
0.00000001
 40
0.0
 40
0.0
 40
0.0
 40
0.0
 40
0.2499999999999991
 40
0.2499999999999991
 40
0.3749999999999992
 40
0.3749999999999992
 40
0.4999999999999994
 40
0.4999999999999994
 40
0.6249999999999997
 40
0.6249999999999997
 40
0.7499999999999998
 40
0.7499999999999998
 40
1.0
 40
1.0
 40
1.0
 40
1.0
 10
8.496246522664434
 20
3.599356116923663
 30
0.0
 10
8.255133396317465
 20
3.764488388677032
 30
0.0
 10
8.113945959390561
 20
3.954699292998673
 30
0.0
 10
8.039394725151404
 20
4.28496392990936
 30
0.0
 10
8.036821053505967
 20
4.402720870237187
 30
0.0
 10
8.053717827574877
 20
4.656810547674
 30
0.0
 10
8.072624544688283
 20
4.793194714713747
 30
0.0
 10
8.098185430084806
 20
5.088269527103034
 30
0.0
 10
8.104279447903199
 20
5.247033623294553
 30
0.0
 10
8.075982716794117
 20
5.589174009955331
 30
0.0
 10
8.04164495185859
 20
5.77251894467079
 30
0.0
 10
7.862377276625166
 20
6.35854874540119
 30
0.0
 10
7.641079470601315
 20
6.796666649049099
 30
0.0
 10
7.319614168185301
 20
7.277705820012748
 30
0.0
  0
SPLINE
  5
132
330
1F
100
AcDbEntity
  8
0
  6
Continuous
 62
     7
370
    25
100
AcDbSpline
210
0.0
220
0.0
230
1.0
 70
     8
 71
     3
 72
    18
 73
    14
 74
     0
 42
0.00000001
 43
0.00000001
 40
0.0
 40
0.0
 40
0.0
 40
0.0
 40
0.2500000000000014
 40
0.2500000000000014
 40
0.3750000000000011
 40
0.3750000000000011
 40
0.5000000000000007
 40
0.5000000000000007
 40
0.6250000000000002
 40
0.6250000000000002
 40
0.7499999999999999
 40
0.7499999999999999
 40
1.0
 40
1.0
 40
1.0
 40
1.0
 10
8.718431633964709
 20
-10.48620673712657
 30
0.0
 10
8.481100113530191
 20
-10.6586693652905
 30
0.0
 10
8.344798800531981
 20
-10.8531448763855
 30
0.0
 10
8.279580558605055
 20
-11.18557664927393
 30
0.0
 10
8.280463631610026
 20
-11.30336929379673
 30
0.0
 10
8.305060348755319
 20
-11.55685280680729
 30
0.0
 10
8.328210110719061
 20
-11.69261259270964
 30
0.0
 10
8.363061621612408
 20
-11.98682834356408
 30
0.0
 10
8.37420333187907
 20
-12.14537521802887
 30
0.0
 10
8.356758001304687
 20
-12.48835420005194
 30
0.0
 10
8.328221197880673
 20
-12.6727536489947
 30
0.0
 10
8.167367148081093
 20
-13.26434258757997
 30
0.0
 10
7.959671857780931
 20
-13.70936330624249
 30
0.0
 10
7.652977674177965
 20
-14.20044510950365
 30
0.0
  0
SPLINE
  5
135
330
1F
100
AcDbEntity
  8
0
  6
Continuous
 62
     7
370
    25
100
AcDbSpline
210
0.0
220
0.0
230
1.0
 70
     8
 71
     3
 72
    18
 73
    14
 74
     0
 42
0.00000001
 43
0.00000001
 40
0.0
 40
0.0
 40
0.0
 40
0.0
 40
0.2500000000000016
 40
0.2500000000000016
 40
0.3750000000000013
 40
0.3750000000000013
 40
0.500000000000001
 40
0.500000000000001
 40
0.6250000000000008
 40
0.6250000000000008
 40
0.7500000000000006
 40
0.7500000000000006
 40
1.0
 40
1.0
 40
1.0
 40
1.0
 10
4.412013522131573
 20
-10.55414109254015
 30
0.0
 10
4.65312409314822
 20
-10.71927347055589
 30
0.0
 10
4.794309366910147
 20
-10.9094843563286
 30
0.0
 10
4.868858473836981
 20
-11.23974886169549
 30
0.0
 10
4.871431651726892
 20
-11.35750574006281
 30
0.0
 10
4.854534403152042
 20
-11.61159524808812
 30
0.0
 10
4.835627700973739
 20
-11.74797930736769
 30
0.0
 10
4.810067126580546
 20
-12.04305382614704
 30
0.0
 10
4.803973398454443
 20
-12.20181773585075
 30
0.0
 10
4.832270647559573
 20
-12.54395763107514
 30
0.0
 10
4.866608633761439
 20
-12.72730225979138
 30
0.0
 10
5.045876608093004
 20
-13.31333094953445
 30
0.0
 10
5.267174121657007
 20
-13.75144786028222
 30
0.0
 10
5.588638617714525
 20
-14.2324858241666
 30
0.0
  0
SPLINE
  5
137
330
1F
100
AcDbEntity
  8
0
  6
Continuous
 62
     7
370
    25
100
AcDbSpline
210
0.0
220
0.0
230
1.0
 70
     8
 71
     3
 72
    18
 73
    14
 74
     0
 42
0.00000001
 43
0.00000001
 40
0.0
 40
0.0
 40
0.0
 40
0.0
 40
0.25
 40
0.25
 40
0.375
 40
0.375
 40
0.5
 40
0.5
 40
0.625
 40
0.625
 40
0.75
 40
0.75
 40
1.0
 40
1.0
 40
1.0
 40
1.0
 10
3.099250142100414
 20
-10.03447743412214
 30
0.0
 10
2.809481921176094
 20
-9.988608201057945
 30
0.0
 10
2.575587385634227
 20
-10.02974357081088
 30
0.0
 10
2.294406363344789
 20
-10.21869207024075
 30
0.0
 10
2.21173881245448
 20
-10.30260847476408
 30
0.0
 10
2.04989140689687
 20
-10.49924089112889
 30
0.0
 10
1.970264095344699
 20
-10.61160691002735
 30
0.0
 10
1.786865882537609
 20
-10.84429260235728
 30
0.0
 10
1.682634691411101
 20
-10.96428055138217
 30
0.0
 10
1.427776215982612
 20
-11.194467603957
 30
0.0
 10
1.277207548026769
 20
-11.30467913759603
 30
0.0
 10
0.7451500085729115
 20
-11.60925469844609
 30
0.0
 10
0.28361009240601
 20
-11.77706911814173
 30
0.0
 10
-0.2805027179580699
 20
-11.90745085416592
 30
0.0
  0
SPLINE
  5
13A
330
1F
100
AcDbEntity
  8
0
  6
Continuous
 62
     7
370
    25
100
AcDbSpline
210
0.0
220
0.0
230
1.0
 70
     8
 71
     3
 72
    10
 73
     6
 74
     0
 42
0.00000001
 43
0.00000001
 40
0.0
 40
0.0
 40
0.0
 40
0.0
 40
0.5
 40
0.5
 40
1.0
 40
1.0
 40
1.0
 40
1.0
 10
-0.1322550561303759
 20
-7.843962169832269
 30
0.0
 10
-0.4511849446989131
 20
-7.966537374828955
 30
0.0
 10
-0.7490495120569922
 20
-8.229885788646612
 30
0.0
 10
-1.290519415578607
 20
-9.119180746648192
 30
0.0
 10
-1.535370696601021
 20
-9.736801015897898
 30
0.0
 10
-1.762867070063817
 20
-10.47039891528459
 30
0.0
  0
SPLINE
  5
13D
330
1F
100
AcDbEntity
  8
0
  6
Continuous
 62
     7
370
    25
100
AcDbSpline
210
0.0
220
0.0
230
1.0
 70
     8
 71
     3
 72
    18
 73
    14
 74
     0
 42
0.00000001
 43
0.00000001
 40
0.0
 40
0.0
 40
0.0
 40
0.0
 40
0.2499999999999992
 40
0.2499999999999992
 40
0.3749999999999993
 40
0.3749999999999993
 40
0.4999999999999994
 40
0.4999999999999994
 40
0.6249999999999996
 40
0.6249999999999996
 40
0.7499999999999997
 40
0.7499999999999997
 40
1.0
 40
1.0
 40
1.0
 40
1.0
 10
4.18982115193503
 20
3.531426732972825
 30
0.0
 10
4.427152671511732
 20
3.703889359538012
 30
0.0
 10
4.563453984835739
 20
3.898364871232185
 30
0.0
 10
4.628672227295622
 20
4.230796645121105
 30
0.0
 10
4.627789154454415
 20
4.348589289954033
 30
0.0
 10
4.60319243745909
 20
4.602072803252991
 30
0.0
 10
4.580042675486728
 20
4.737832589142787
 30
0.0
 10
4.545191164463919
 20
5.03204833975307
 30
0.0
 10
4.534049454081098
 20
5.190595213994426
 30
0.0
 10
4.551494784435263
 20
5.533574195583258
 30
0.0
 10
4.580031587756404
 20
5.717973644317559
 30
0.0
 10
4.74088563738255
 20
6.309562582539785
 30
0.0
 10
4.94858092775911
 20
6.754583301338101
 30
0.0
 10
5.255275111721858
 20
7.24566510534988
 30
0.0
  0
SPLINE
  5
142
330
1F
100
AcDbEntity
  8
0
  6
Continuous
 62
     7
370
    25
100
AcDbSpline
210
0.0
220
0.0
230
1.0
 70
     8
 71
     3
 72
    18
 73
    14
 74
     0
 42
0.00000001
 43
0.00000001
 40
0.0
 40
0.0
 40
0.0
 40
0.0
 40
0.2499999999999998
 40
0.2499999999999998
 40
0.3749999999999998
 40
0.3749999999999998
 40
0.4999999999999999
 40
0.4999999999999999
 40
0.6249999999999999
 40
0.6249999999999999
 40
0.7499999999999999
 40
0.7499999999999999
 40
1.0
 40
1.0
 40
1.0
 40
1.0
 10
9.80900264379939
 20
3.079697429968359
 30
0.0
 10
10.09877086382761
 20
3.033828195222091
 30
0.0
 10
10.33266539970551
 20
3.074963565608824
 30
0.0
 10
10.61384642255547
 20
3.263912066088129
 30
0.0
 10
10.69651397361968
 20
3.347828470935746
 30
0.0
 10
10.8583613793393
 20
3.544460887600687
 30
0.0
 10
10.93798869088458
 20
3.656826906484445
 30
0.0
 10
11.12138690355486
 20
3.889512598558631
 30
0.0
 10
11.22561809455596
 20
4.00950054735133
 30
0.0
 10
11.48047656973993
 20
4.239687599478625
 30
0.0
 10
11.63104523757799
 20
4.349899132904802
 30
0.0
 10
12.16310277682546
 20
4.65447469338702
 30
0.0
 10
12.62464269306682
 20
4.822289113223785
 30
0.0
 10
13.18875550385787
 20
4.952670850012164
 30
0.0
  0
SPLINE
  5
147
330
1F
100
AcDbEntity
  8
0
  6
Continuous
 62
     7
370
    25
100
AcDbSpline
210
0.0
220
0.0
230
1.0
 70
     8
 71
     3
 72
    10
 73
     6
 74
     0
 42
0.00000001
 43
0.00000001
 40
0.0
 40
0.0
 40
0.0
 40
0.0
 40
0.5
 40
0.5
 40
1.0
 40
1.0
 40
1.0
 40
1.0
 10
-0.2645822136294329
 20
0.6816940875226385
 30
0.0
 10
-0.5871287447496154
 20
0.7947773380505979
 30
0.0
 10
-0.8930060350983426
 20
1.049077666890358
 30
0.0
 10
-1.461821900206529
 20
1.921442941909032
 30
0.0
 10
-1.72574576031264
 20
2.531160830206061
 30
0.0
 10
-1.975934459139128
 20
3.25723910883105
 30
0.0
  0
SPLINE
  5
14A
330
1F
100
AcDbEntity
  8
0
  6
Continuous
 62
     7
370
    25
100
AcDbSpline
210
0.0
220
0.0
230
1.0
 70
     8
 71
     3
 72
    18
 73
    14
 74
     0
 42
0.00000001
 43
0.00000001
 40
0.0
 40
0.0
 40
0.0
 40
0.0
 40
0.2499999999999993
 40
0.2499999999999993
 40
0.3749999999999993
 40
0.3749999999999993
 40
0.4999999999999994
 40
0.4999999999999994
 40
0.6249999999999996
 40
0.6249999999999996
 40
0.7499999999999997
 40
0.7499999999999997
 40
1.0
 40
1.0
 40
1.0
 40
1.0
 10
2.894103002607637
 20
2.970621184211319
 30
0.0
 10
2.606845170544637
 20
2.916895740829748
 30
0.0
 10
2.372512086027831
 20
2.951561481176881
 30
0.0
 10
2.086265001156285
 20
3.13237901299436
 30
0.0
 10
2.001178646303618
 20
3.213826067442777
 30
0.0
 10
1.833458210338375
 20
3.405442555003621
 30
0.0
 10
1.750389148426516
 20
3.515249739959578
 30
0.0
 10
1.559814015605329
 20
3.741973158429807
 30
0.0
 10
1.451859923904333
 20
3.858545245785966
 30
0.0
 10
1.189921314564538
 20
4.080465792523594
 30
0.0
 10
1.035996437579522
 20
4.185829547931438
 30
0.0
 10
0.4948497486631422
 20
4.47345320407655
 30
0.0
 10
0.0285729765467022
 20
4.626767866879725
 30
0.0
 10
-0.5388825202577996
 20
4.73960346093688
 30
0.0
  0
SPLINE
  5
14C
330
1F
100
AcDbEntity
  8
0
  6
Continuous
 62
     7
370
    25
100
AcDbSpline
210
0.0
220
0.0
230
1.0
 70
     8
 71
     3
 72
    18
 73
    14
 74
     0
 42
0.00000001
 43
0.00000001
 40
0.0
 40
0.0
 40
0.0
 40
0.0
 40
0.2500000000000007
 40
0.2500000000000007
 40
0.3750000000000009
 40
0.3750000000000009
 40
0.5000000000000006
 40
0.5000000000000006
 40
0.6250000000000002
 40
0.6250000000000002
 40
0.7499999999999999
 40
0.7499999999999999
 40
1.0
 40
1.0
 40
1.0
 40
1.0
 10
13.01121382499514
 20
-6.832266252926433
 30
0.0
 10
12.96534459068067
 20
-7.122034474212335
 30
0.0
 10
13.00647996090246
 20
-7.355929009616028
 30
0.0
 10
13.19542846111426
 20
-7.637110031681507
 30
0.0
 10
13.2793448658802
 20
-7.719777582503418
 30
0.0
 10
13.47597728247119
 20
-7.881624987999131
 30
0.0
 10
13.58834330136026
 20
-7.96125229955541
 30
0.0
 10
13.82102899349945
 20
-8.14465051241653
 30
0.0
 10
13.94101694234929
 20
-8.24888170359102
 30
0.0
 10
14.17120399458215
 20
-8.503740179109348
 30
0.0
 10
14.28141552805604
 20
-8.65430884710662
 30
0.0
 10
14.58599108861516
 20
-9.186366386629368
 30
0.0
 10
14.75380550841066
 20
-9.647906302763868
 30
0.0
 10
14.884187245039
 20
-10.21201911298478
 30
0.0
  0
SPLINE
  5
14D
330
1F
100
AcDbEntity
  8
0
  6
Continuous
 62
     7
370
    25
100
AcDbSpline
210
0.0
220
0.0
230
1.0
 70
     8
 71
     3
 72
    18
 73
    14
 74
     0
 42
0.00000001
 43
0.00000001
 40
0.0
 40
0.0
 40
0.0
 40
0.0
 40
0.2500000000000024
 40
0.2500000000000024
 40
0.3750000000000022
 40
0.3750000000000022
 40
0.5000000000000021
 40
0.5000000000000021
 40
0.625000000000002
 40
0.625000000000002
 40
0.7500000000000018
 40
0.7500000000000018
 40
1.0
 40
1.0
 40
1.0
 40
1.0
 10
10.0141447231807
 20
-9.925402134760494
 30
0.0
 10
10.30140356841568
 20
-9.871675590513037
 30
0.0
 10
10.53573755560811
 20
-9.906340443449263
 30
0.0
 10
10.82198557510696
 20
-10.08715714933624
 30
0.0
 10
10.90707215990233
 20
-10.16860402505693
 30
0.0
 10
11.07479286230935
 20
-10.36022038628868
 30
0.0
 10
11.1578619626328
 20
-10.47002762198738
 30
0.0
 10
11.34843708824084
 20
-10.69675129066289
 30
0.0
 10
11.45639113721862
 20
-10.81332357510885
 30
0.0
 10
11.71832973550296
 20
-11.03524453969948
 30
0.0
 10
11.87225464750276
 20
-11.14060851339148
 30
0.0
 10
12.41340167223196
 20
-11.42823275323936
 30
0.0
 10
12.87967897614099
 20
-11.58154770585226
 30
0.0
 10
13.44713530615762
 20
-11.69438346509068
 30
0.0
  0
LINE
  5
151
330
1F
100
AcDbEntity
  8
0
  6
Continuous
 62
     7
370
    25
100
AcDbLine
 10
98.833549211
 20
-23.7280414186
 30
0.0
 11
99.5559095498
 21
-20.8163073063
 31
0.0
  0
LINE
  5
152
330
1F
100
AcDbEntity
  8
0
  6
Continuous
 62
     7
370
    25
100
AcDbLine
 10
64.5578046723
 20
-43.2613177691
 30
0.0
 11
61.6844963495
 21
-42.3987058736
 31
0.0
  0
LINE
  5
153
330
1F
100
AcDbEntity
  8
0
  6
Continuous
 62
     7
370
    25
100
AcDbLine
 10
67.2806680791
 20
-31.7371709512
 30
0.0
 11
34.8780786012
 21
-31.9148867538
 31
0.0
  0
LINE
  5
154
330
1F
100
AcDbEntity
  8
0
  6
Continuous
 62
     7
370
    25
100
AcDbLine
 10
32.7654468007
 20
-37.7901554589
 30
0.0
 11
33.7069594798
 21
-37.3641236233
 31
0.0
  0
LINE
  5
155
330
1F
100
AcDbEntity
  8
0
  6
Continuous
 62
     7
370
    25
100
AcDbLine
 10
32.7654468007
 20
-37.7901554589
 30
0.0
 11
31.7874823564
 21
-38.1241237145
 31
0.0
  0
LINE
  5
156
330
1F
100
AcDbEntity
  8
0
  6
Continuous
 62
     7
370
    25
100
AcDbLine
 10
24.5114254359
 20
-37.660585136
 30
0.0
 11
25.4784254359
 21
-38.025085136
 31
0.0
  0
LINE
  5
157
330
1F
100
AcDbEntity
  8
0
  6
Continuous
 62
     7
370
    25
100
AcDbLine
 10
24.5114254359
 20
-37.660585136
 30
0.0
 11
23.5837489274
 21
-37.2052110639
 31
0.0
  0
LINE
  5
158
330
1F
100
AcDbEntity
  8
0
  6
Continuous
 62
     7
370
    25
100
AcDbLine
 10
18.7665710108
 20
-31.7324906029
 30
0.0
 11
19.1926028465
 21
-32.6740032821
 31
0.0
  0
LINE
  5
159
330
1F
100
AcDbEntity
  8
0
  6
Continuous
 62
     7
370
    25
100
AcDbLine
 10
18.7665710108
 20
-31.7324906029
 30
0.0
 11
18.4326027553
 21
-30.7545261586
 31
0.0
  0
LINE
  5
15A
330
1F
100
AcDbEntity
  8
0
  6
Continuous
 62
     7
370
    25
100
AcDbLine
 10
18.8961413337
 20
-23.4784692381
 30
0.0
 11
18.5316413337
 21
-24.4454692381
 31
0.0
  0
LINE
  5
15B
330
1F
100
AcDbEntity
  8
0
  6
Continuous
 62
     7
370
    25
100
AcDbLine
 10
18.8961413337
 20
-23.4784692381
 30
0.0
 11
19.3515154059
 21
-22.5507927296
 31
0.0
  0
LINE
  5
15C
330
1F
100
AcDbEntity
  8
0
  6
Continuous
 62
     7
370
    25
100
AcDbLine
 10
24.8242358668
 20
-17.7336148131
 30
0.0
 11
23.8827231877
 21
-18.1596466487
 31
0.0
  0
LINE
  5
15D
330
1F
100
AcDbEntity
  8
0
  6
Continuous
 62
     7
370
    25
100
AcDbLine
 10
24.8242358668
 20
-17.7336148131
 30
0.0
 11
25.8022003111
 21
-17.3996465575
 31
0.0
  0
LINE
  5
15E
330
1F
100
AcDbEntity
  8
0
  6
Continuous
 62
     7
370
    25
100
AcDbLine
 10
33.0782572316
 20
-17.863185136
 30
0.0
 11
32.1112572316
 21
-17.498685136
 31
0.0
  0
LINE
  5
15F
330
1F
100
AcDbEntity
  8
0
  6
Continuous
 62
     7
370
    25
100
AcDbLine
 10
33.0782572316
 20
-17.863185136
 30
0.0
 11
34.0059337401
 21
-18.3185592081
 31
0.0
  0
LINE
  5
160
330
1F
100
AcDbEntity
  8
0
  6
Continuous
 62
     7
370
    25
100
AcDbLine
 10
75.5671054209
 20
-24.4641486492
 30
0.0
 11
34.7278533233
 21
-23.3969605294
 31
0.0
  0
LINE
  5
161
330
1F
100
AcDbEntity
  8
0
  6
Continuous
 62
     7
370
    25
100
AcDbLine
 10
6.6322508429
 20
-16.8278813098
 30
0.0
 11
7.6636508429
 21
-16.7622813098
 31
0.0
  0
LINE
  5
162
330
1F
100
AcDbEntity
  8
0
  6
Continuous
 62
     7
370
    25
100
AcDbLine
 10
8.6965898994
 20
-16.7958405951
 30
0.0
 11
7.6636508429
 21
-16.7622813098
 31
0.0
  0
LINE
  5
163
330
1F
100
AcDbEntity
  8
0
  6
Continuous
 62
     7
370
    25
100
AcDbLine
 10
14.5657312351
 20
-19.1208755651
 30
0.0
 11
15.341427374
 21
-19.8037992944
 31
0.0
  0
LINE
  5
164
330
1F
100
AcDbEntity
  8
0
  6
Continuous
 62
     7
370
    25
100
AcDbLine
 10
16.0480955872
 20
-20.557927504
 30
0.0
 11
15.341427374
 21
-19.8037992944
 31
0.0
  0
LINE
  5
165
330
1F
100
AcDbEntity
  8
0
  6
Continuous
 62
     7
370
    25
100
AcDbLine
 10
18.5541572316
 20
-26.352085136
 30
0.0
 11
18.6197572316
 21
-27.383485136
 31
0.0
  0
LINE
  5
166
330
1F
100
AcDbEntity
  8
0
  6
Continuous
 62
     7
370
    25
100
AcDbLine
 10
18.5861979463
 20
-28.4164241925
 30
0.0
 11
18.6197572316
 21
-27.383485136
 31
0.0
  0
LINE
  5
167
330
1F
100
AcDbEntity
  8
0
  6
Continuous
 62
     7
370
    25
100
AcDbLine
 10
16.2611629763
 20
-34.2855655281
 30
0.0
 11
15.578239247
 21
-35.0612616671
 31
0.0
  0
LINE
  5
168
330
1F
100
AcDbEntity
  8
0
  6
Continuous
 62
     7
370
    25
100
AcDbLine
 10
14.8241110374
 20
-35.7679298802
 30
0.0
 11
15.578239247
 21
-35.0612616671
 31
0.0
  0
LINE
  5
169
330
1F
100
AcDbEntity
  8
0
  6
Continuous
 62
     7
370
    25
100
AcDbLine
 10
9.0299534054
 20
-38.2739915247
 30
0.0
 11
7.9985534054
 21
-38.3395915247
 31
0.0
  0
LINE
  5
16A
330
1F
100
AcDbEntity
  8
0
  6
Continuous
 62
     7
370
    25
100
AcDbLine
 10
6.9656143489
 20
-38.3060322393
 30
0.0
 11
7.9985534054
 21
-38.3395915247
 31
0.0
  0
LINE
  5
16B
330
1F
100
AcDbEntity
  8
0
  6
Continuous
 62
     7
370
    25
100
AcDbLine
 10
1.0964730133
 20
-35.9809972693
 30
0.0
 11
0.3207768748
 21
-35.2980735405
 31
0.0
  0
LINE
  5
16C
330
1F
100
AcDbEntity
  8
0
  6
Continuous
 62
     7
370
    25
100
AcDbLine
 10
-0.3858913388
 20
-34.5439453304
 30
0.0
 11
0.3207768748
 21
-35.2980735405
 31
0.0
  0
LINE
  5
16D
330
1F
100
AcDbEntity
  8
0
  6
Continuous
 62
     7
370
    25
100
AcDbLine
 10
-31.635902369
 20
-31.7371709512
 30
0.0
 11
1.2447206752
 21
-31.917508585
 31
0.0
  0
LINE
  5
16E
330
1F
100
AcDbEntity
  8
0
  6
Continuous
 62
     7
370
    25
100
AcDbLine
 10
-28.9130389622
 20
-43.2613177691
 30
0.0
 11
-26.0397306394
 21
-42.3987058736
 31
0.0
  0
LINE
  5
16F
330
1F
100
AcDbEntity
  8
0
  6
Continuous
 62
     7
370
    25
100
AcDbLine
 10
-63.1887835008
 20
-23.7280414186
 30
0.0
 11
-63.9111438397
 21
-20.8163073063
 31
0.0
  0
LINE
  5
170
330
1F
100
AcDbEntity
  8
0
  6
Continuous
 62
     7
370
    25
100
AcDbLine
 10
-39.9223397107
 20
-24.4641486492
 30
0.0
 11
1.1123935176
 21
-23.3918523276
 31
0.0
  0
LINE
  5
171
330
1F
100
AcDbEntity
  8
0
  6
Continuous
 62
     7
370
    25
100
AcDbLine
 10
-0.5989587279
 20
-20.8163073063
 30
0.0
 11
0.0839650014
 21
-20.0406111674
 31
0.0
  0
LINE
  5
172
330
1F
100
AcDbEntity
  8
0
  6
Continuous
 62
     7
370
    25
100
AcDbLine
 10
0.838093211
 20
-19.3339429542
 30
0.0
 11
0.0839650014
 21
-20.0406111674
 31
0.0
  0
LINE
  5
173
330
1F
100
AcDbEntity
  8
0
  6
Continuous
 62
     7
370
    25
100
AcDbLine
 10
110.9483284807
 20
115.0341411658
 30
0.0
 11
75.5932583767
 21
150.389749177
 31
0.0
  0
LINE
  5
174
330
1F
100
AcDbEntity
  8
0
  6
Continuous
 62
     7
370
    25
100
AcDbLine
 10
209.132603089
 20
188.5732180014
 30
0.0
 11
209.132603089
 21
42.8625398827
 31
0.0
  0
LINE
  5
175
330
1F
100
AcDbEntity
  8
0
  6
Continuous
 62
     7
370
    25
100
AcDbLine
 10
151.9607838532
 20
150.3891613485
 30
0.0
 11
116.60518273
 21
115.0340981325
 31
0.0
  0
LINE
  5
176
330
1F
100
AcDbEntity
  8
0
  6
Continuous
 62
     7
370
    25
100
AcDbLine
 10
116.6057567818
 20
191.4016236097
 30
0.0
 11
151.9608268861
 21
156.0460155981
 31
0.0
  0
LINE
  5
177
330
1F
100
AcDbEntity
  8
0
  6
Continuous
 62
     7
370
    25
100
AcDbLine
 10
75.5933014093
 20
156.0466034263
 30
0.0
 11
110.9489025325
 21
191.4016666423
 31
0.0
  0
LINE
  5
178
330
1F
100
AcDbEntity
  8
0
  6
Continuous
 62
     7
370
    25
100
AcDbLine
 10
209.132603089
 20
42.8625398827
 30
0.0
 11
169.8432812077
 21
3.5732180014
 31
0.0
  0
LINE
  5
179
330
1F
100
AcDbEntity
  8
0
  6
Continuous
 62
     7
370
    25
100
AcDbLine
 10
169.8432812077
 20
3.5732180014
 30
0.0
 11
57.711028899
 21
3.5732180014
 31
0.0
  0
LINE
  5
17A
330
1F
100
AcDbEntity
  8
0
  6
Continuous
 62
     7
370
    25
100
AcDbLine
 10
18.4217070177
 20
42.8625398827
 30
0.0
 11
57.711028899
 21
3.5732180014
 31
0.0
  0
LINE
  5
17B
330
1F
100
AcDbEntity
  8
0
  6
Continuous
 62
     7
370
    25
100
AcDbLine
 10
18.4217070177
 20
42.8625398827
 30
0.0
 11
18.4217070177
 21
188.5732180014
 31
0.0
  0
LINE
  5
17C
330
1F
100
AcDbEntity
  8
0
  6
Continuous
 62
     7
370
    25
100
AcDbLine
 10
18.4217070177
 20
188.5732180014
 30
0.0
 11
78.4217070177
 21
198.5732180014
 31
0.0
  0
LINE
  5
17D
330
1F
100
AcDbEntity
  8
0
  6
Continuous
 62
     7
370
    25
100
AcDbLine
 10
78.4217070177
 20
198.5732180014
 30
0.0
 11
149.132603089
 21
198.5732180014
 31
0.0
  0
LINE
  5
17E
330
1F
100
AcDbEntity
  8
0
  6
Continuous
 62
     7
370
    25
100
AcDbLine
 10
149.132603089
 20
198.5732180014
 30
0.0
 11
209.132603089
 21
188.5732180014
 31
0.0
  0
LINE
  5
17F
330
1F
100
AcDbEntity
  8
0
  6
Continuous
 62
     7
370
    25
100
AcDbLine
 10
-84.9346833664
 20
114.9282596446
 30
0.0
 11
-120.2897534703
 21
150.2838676558
 31
0.0
  0
LINE
  5
180
330
1F
100
AcDbEntity
  8
0
  6
Continuous
 62
     7
370
    25
100
AcDbLine
 10
13.249591242
 20
188.4673364802
 30
0.0
 11
13.249591242
 21
42.7566583615
 31
0.0
  0
LINE
  5
181
330
1F
100
AcDbEntity
  8
0
  6
Continuous
 62
     7
370
    25
100
AcDbLine
 10
-43.9222279939
 20
150.2832798273
 30
0.0
 11
-79.2778291171
 21
114.9282166113
 31
0.0
  0
LINE
  5
182
330
1F
100
AcDbEntity
  8
0
  6
Continuous
 62
     7
370
    25
100
AcDbLine
 10
-79.2772550652
 20
191.2957420886
 30
0.0
 11
-43.9221849609
 21
155.940134077
 31
0.0
  0
LINE
  5
183
330
1F
100
AcDbEntity
  8
0
  6
Continuous
 62
     7
370
    25
100
AcDbLine
 10
-120.2897104377
 20
155.9407219051
 30
0.0
 11
-84.9341093145
 21
191.2957851211
 31
0.0
  0
LINE
  5
184
330
1F
100
AcDbEntity
  8
0
  6
Continuous
 62
     7
370
    25
100
AcDbLine
 10
13.249591242
 20
42.7566583615
 30
0.0
 11
-26.0397306394
 21
3.4673364802
 31
0.0
  0
LINE
  5
185
330
1F
100
AcDbEntity
  8
0
  6
Continuous
 62
     7
370
    25
100
AcDbLine
 10
-26.0397306394
 20
3.4673364802
 30
0.0
 11
-138.171982948
 21
3.4673364802
 31
0.0
  0
LINE
  5
186
330
1F
100
AcDbEntity
  8
0
  6
Continuous
 62
     7
370
    25
100
AcDbLine
 10
-177.4613048294
 20
42.7566583615
 30
0.0
 11
-138.171982948
 21
3.4673364802
 31
0.0
  0
LINE
  5
187
330
1F
100
AcDbEntity
  8
0
  6
Continuous
 62
     7
370
    25
100
AcDbLine
 10
-177.4613048294
 20
42.7566583615
 30
0.0
 11
-177.4613048294
 21
188.4673364802
 31
0.0
  0
LINE
  5
188
330
1F
100
AcDbEntity
  8
0
  6
Continuous
 62
     7
370
    25
100
AcDbLine
 10
-177.4613048294
 20
188.4673364802
 30
0.0
 11
-117.4613048294
 21
198.4673364802
 31
0.0
  0
LINE
  5
189
330
1F
100
AcDbEntity
  8
0
  6
Continuous
 62
     7
370
    25
100
AcDbLine
 10
-117.4613048294
 20
198.4673364802
 30
0.0
 11
-46.750408758
 21
198.4673364802
 31
0.0
  0
LINE
  5
18A
330
1F
100
AcDbEntity
  8
0
  6
Continuous
 62
     7
370
    25
100
AcDbLine
 10
-46.750408758
 20
198.4673364802
 30
0.0
 11
13.249591242
 21
188.4673364802
 31
0.0
  0
LINE
  5
18B
330
1F
100
AcDbEntity
  8
0
  6
Continuous
 62
     7
370
    25
100
AcDbLine
 10
17.5191656025
 20
0.595077177
 30
0.0
 11
17.1546656025
 21
-0.371922823
 31
0.0
  0
LINE
  5
18C
330
1F
100
AcDbEntity
  8
0
  6
Continuous
 62
     7
370
    25
100
AcDbLine
 10
17.5191656025
 20
0.595077177
 30
0.0
 11
17.9745396747
 21
1.5227536855
 31
0.0
  0
LINE
  5
18D
330
1F
100
AcDbEntity
  8
0
  6
Continuous
 62
     7
370
    25
100
AcDbLine
 10
23.4472601356
 20
6.3399316021
 30
0.0
 11
22.5057474565
 21
5.9138997664
 31
0.0
  0
LINE
  5
18E
330
1F
100
AcDbEntity
  8
0
  6
Continuous
 62
     7
370
    25
100
AcDbLine
 10
23.4472601356
 20
6.3399316021
 30
0.0
 11
24.4252245799
 21
6.6738998576
 31
0.0
  0
LINE
  5
18F
330
1F
100
AcDbEntity
  8
0
  6
Continuous
 62
     7
370
    25
100
AcDbLine
 10
31.7012815004
 20
6.2103612792
 30
0.0
 11
30.7342815004
 21
6.5748612792
 31
0.0
  0
LINE
  5
190
330
1F
100
AcDbEntity
  8
0
  6
Continuous
 62
     7
370
    25
100
AcDbLine
 10
31.7012815004
 20
6.2103612792
 30
0.0
 11
32.6289580089
 21
5.754987207
 31
0.0
  0
LINE
  5
191
330
1F
100
AcDbEntity
  8
0
  6
Continuous
 62
     7
370
    25
100
AcDbLine
 10
83.1553964613
 20
-0.6248774888
 30
0.0
 11
33.3508775921
 21
0.6765858857
 31
0.0
  0
LINE
  5
192
330
1F
100
AcDbEntity
  8
0
  6
Continuous
 62
     7
370
    25
100
AcDbLine
 10
89.7153927931
 20
-16.8682373679
 30
0.0
 11
83.1553964613
 21
-0.6248774888
 31
0.0
  0
LINE
  5
193
330
1F
100
AcDbEntity
  8
0
  6
Continuous
 62
     7
370
    25
100
AcDbLine
 10
89.7153927931
 20
-16.8682373679
 30
0.0
 11
87.6293637452
 21
-17.4358300209
 31
0.0
  0
LINE
  5
194
330
1F
100
AcDbEntity
  8
0
  6
Continuous
 62
     7
370
    25
100
AcDbLine
 10
87.6293637452
 20
-17.4358300209
 30
0.0
 11
87.0052895062
 21
-15.3659967057
 31
0.0
  0
LINE
  5
195
330
1F
100
AcDbEntity
  8
0
  6
Continuous
 62
     7
370
    25
100
AcDbLine
 10
87.0052895062
 20
-15.3659967057
 30
0.0
 11
84.935456191
 21
-15.9900709447
 31
0.0
  0
LINE
  5
196
330
1F
100
AcDbEntity
  8
0
  6
Continuous
 62
     7
370
    25
100
AcDbLine
 10
84.935456191
 20
-15.9900709447
 30
0.0
 11
84.367863538
 21
-13.9040418968
 31
0.0
  0
LINE
  5
197
330
1F
100
AcDbEntity
  8
0
  6
Continuous
 62
     7
370
    25
100
AcDbLine
 10
84.367863538
 20
-13.9040418968
 30
0.0
 11
82.2818344901
 21
-14.4716345498
 31
0.0
  0
LINE
  5
198
330
1F
100
AcDbEntity
  8
0
  6
Continuous
 62
     7
370
    25
100
AcDbLine
 10
82.2818344901
 20
-14.4716345498
 30
0.0
 11
81.6577602511
 21
-12.4018012346
 31
0.0
  0
LINE
  5
199
330
1F
100
AcDbEntity
  8
0
  6
Continuous
 62
     7
370
    25
100
AcDbLine
 10
81.6577602511
 20
-12.4018012346
 30
0.0
 11
79.4958910117
 21
-12.4018012346
 31
0.0
  0
LINE
  5
19A
330
1F
100
AcDbEntity
  8
0
  6
Continuous
 62
     7
370
    25
100
AcDbLine
 10
79.4958910117
 20
-12.4018012346
 30
0.0
 11
78.3502809406
 21
-10.5684283393
 31
0.0
  0
LINE
  5
19B
330
1F
100
AcDbEntity
  8
0
  6
Continuous
 62
     7
370
    25
100
AcDbLine
 10
73.0230693038
 20
-7.6245774781
 30
0.0
 11
33.50110287
 21
-7.8413403387
 31
0.0
  0
LINE
  5
19C
330
1F
100
AcDbEntity
  8
0
  6
Continuous
 62
     7
370
    25
100
AcDbLine
 10
31.3884710694
 20
-13.7166090438
 30
0.0
 11
32.3299837486
 21
-13.2905772081
 31
0.0
  0
LINE
  5
19D
330
1F
100
AcDbEntity
  8
0
  6
Continuous
 62
     7
370
    25
100
AcDbLine
 10
31.3884710694
 20
-13.7166090438
 30
0.0
 11
30.4105066251
 21
-14.0505772993
 31
0.0
  0
LINE
  5
19E
330
1F
100
AcDbEntity
  8
0
  6
Continuous
 62
     7
370
    25
100
AcDbLine
 10
23.1344497047
 20
-13.5870387208
 30
0.0
 11
24.1014497047
 21
-13.9515387208
 31
0.0
  0
LINE
  5
19F
330
1F
100
AcDbEntity
  8
0
  6
Continuous
 62
     7
370
    25
100
AcDbLine
 10
23.1344497047
 20
-13.5870387208
 30
0.0
 11
22.2067731962
 21
-13.1316646487
 31
0.0
  0
LINE
  5
1A0
330
1F
100
AcDbEntity
  8
0
  6
Continuous
 62
     7
370
    25
100
AcDbLine
 10
17.3895952796
 20
-7.6589441878
 30
0.0
 11
17.8156271152
 21
-8.6004568669
 31
0.0
  0
LINE
  5
1A1
330
1F
100
AcDbEntity
  8
0
  6
Continuous
 62
     7
370
    25
100
AcDbLine
 10
17.3895952796
 20
-7.6589441878
 30
0.0
 11
17.055627024
 21
-6.6809797435
 31
0.0
  0
LINE
  5
1A2
330
1F
100
AcDbEntity
  8
0
  6
Continuous
 62
     7
370
    25
100
AcDbLine
 10
13.1887555039
 20
4.95267085
 30
0.0
 11
13.9644516428
 21
4.2697471207
 31
0.0
  0
LINE
  5
1A3
330
1F
100
AcDbEntity
  8
0
  6
Continuous
 62
     7
370
    25
100
AcDbLine
 10
14.671119856
 20
3.5156189111
 30
0.0
 11
13.9644516428
 21
4.2697471207
 31
0.0
  0
LINE
  5
1A4
330
1F
100
AcDbEntity
  8
0
  6
Continuous
 62
     7
370
    25
100
AcDbLine
 10
5.2552751117
 20
7.2456651053
 30
0.0
 11
6.2866751117
 21
7.3112651053
 31
0.0
  0
LINE
  5
1A5
330
1F
100
AcDbEntity
  8
0
  6
Continuous
 62
     7
370
    25
100
AcDbLine
 10
17.1771815004
 20
-2.2785387208
 30
0.0
 11
17.2427815004
 21
-3.3099387208
 31
0.0
  0
LINE
  5
1A6
330
1F
100
AcDbEntity
  8
0
  6
Continuous
 62
     7
370
    25
100
AcDbLine
 10
17.209222215
 20
-4.3428777773
 30
0.0
 11
17.2427815004
 21
-3.3099387208
 31
0.0
  0
LINE
  5
1A7
330
1F
100
AcDbEntity
  8
0
  6
Continuous
 62
     7
370
    25
100
AcDbLine
 10
14.884187245
 20
-10.212019113
 30
0.0
 11
14.2012635158
 21
-10.9877152519
 31
0.0
  0
LINE
  5
1A8
330
1F
100
AcDbEntity
  8
0
  6
Continuous
 62
     7
370
    25
100
AcDbLine
 10
13.4471353062
 20
-11.6943834651
 30
0.0
 11
14.2012635158
 21
-10.9877152519
 31
0.0
  0
LINE
  5
1A9
330
1F
100
AcDbEntity
  8
0
  6
Continuous
 62
     7
370
    25
100
AcDbLine
 10
7.6529776742
 20
-14.2004451095
 30
0.0
 11
6.6215776742
 21
-14.2660451095
 31
0.0
  0
LINE
  5
1AA
330
1F
100
AcDbEntity
  8
0
  6
Continuous
 62
     7
370
    25
100
AcDbLine
 10
5.5886386177
 20
-14.2324858242
 30
0.0
 11
6.6215776742
 21
-14.2660451095
 31
0.0
  0
LINE
  5
1AB
330
1F
100
AcDbEntity
  8
0
  6
Continuous
 62
     7
370
    25
100
AcDbLine
 10
-0.280502718
 20
-11.9074508542
 30
0.0
 11
-1.0561988569
 21
-11.2245271249
 31
0.0
  0
LINE
  5
1AC
330
1F
100
AcDbEntity
  8
0
  6
Continuous
 62
     7
370
    25
100
AcDbLine
 10
-1.7628670701
 20
-10.4703989153
 30
0.0
 11
-1.0561988569
 21
-11.2245271249
 31
0.0
  0
LINE
  5
1AD
330
1F
100
AcDbEntity
  8
0
  6
Continuous
 62
     7
370
    25
100
AcDbLine
 10
-40.1322550561
 20
-7.6245774781
 30
0.0
 11
-0.1322550561
 21
-7.8439621698
 31
0.0
  0
LINE
  5
1AE
330
1F
100
AcDbEntity
  8
0
  6
Continuous
 62
     7
370
    25
100
AcDbLine
 10
-48.7669460034
 20
-12.4018012346
 30
0.0
 11
-46.605076764
 21
-12.4018012346
 31
0.0
  0
LINE
  5
1AF
330
1F
100
AcDbEntity
  8
0
  6
Continuous
 62
     7
370
    25
100
AcDbLine
 10
-49.3910202424
 20
-14.4716345498
 30
0.0
 11
-48.7669460034
 21
-12.4018012346
 31
0.0
  0
LINE
  5
1B0
330
1F
100
AcDbEntity
  8
0
  6
Continuous
 62
     7
370
    25
100
AcDbLine
 10
-51.4770492903
 20
-13.9040418968
 30
0.0
 11
-49.3910202424
 21
-14.4716345498
 31
0.0
  0
LINE
  5
1B1
330
1F
100
AcDbEntity
  8
0
  6
Continuous
 62
     7
370
    25
100
AcDbLine
 10
-52.0446419433
 20
-15.9900709447
 30
0.0
 11
-51.4770492903
 21
-13.9040418968
 31
0.0
  0
LINE
  5
1B2
330
1F
100
AcDbEntity
  8
0
  6
Continuous
 62
     7
370
    25
100
AcDbLine
 10
-54.7385494975
 20
-17.4358300209
 30
0.0
 11
-54.1144752585
 21
-15.3659967057
 31
0.0
  0
LINE
  5
1B3
330
1F
100
AcDbEntity
  8
0
  6
Continuous
 62
     7
370
    25
100
AcDbLine
 10
-56.8245785454
 20
-16.8682373679
 30
0.0
 11
-54.7385494975
 21
-17.4358300209
 31
0.0
  0
LINE
  5
1B4
330
1F
100
AcDbEntity
  8
0
  6
Continuous
 62
     7
370
    25
100
AcDbLine
 10
-56.8245785454
 20
-16.8682373679
 30
0.0
 11
-50.2645822136
 21
-0.6248774888
 31
0.0
  0
LINE
  5
1B5
330
1F
100
AcDbEntity
  8
0
  6
Continuous
 62
     7
370
    25
100
AcDbLine
 10
-50.2645822136
 20
-0.6248774888
 30
0.0
 11
-0.2645822136
 21
0.6816940875
 31
0.0
  0
LINE
  5
1B6
330
1F
100
AcDbEntity
  8
0
  6
Continuous
 62
     7
370
    25
100
AcDbLine
 10
-1.9759344591
 20
3.2572391088
 30
0.0
 11
-1.2930107299
 21
4.0329352478
 31
0.0
  0
LINE
  5
1B7
330
1F
100
AcDbEntity
  8
0
  6
Continuous
 62
     7
370
    25
100
AcDbLine
 10
-0.5388825203
 20
4.7396034609
 30
0.0
 11
-1.2930107299
 21
4.0329352478
 31
0.0
  0
LINE
  5
1B8
330
1F
100
AcDbEntity
  8
0
  6
Continuous
 62
     7
370
    25
100
AcDbLine
 10
-46.605076764
 20
-12.4018012346
 30
0.0
 11
-45.4594666928
 21
-10.5684283393
 31
0.0
  0
LINE
  5
1B9
330
1F
100
AcDbEntity
  8
0
  6
Continuous
 62
     7
370
    25
100
AcDbLine
 10
7.3196141682
 20
7.27770582
 30
0.0
 11
6.2866751117
 21
7.3112651053
 31
0.0
  0
LINE
  5
1BA
330
1F
100
AcDbEntity
  8
0
  6
Continuous
 62
     7
370
    25
100
AcDbLine
 10
-54.1144752585
 20
-15.3659967057
 30
0.0
 11
-52.0446419433
 21
-15.9900709447
 31
0.0
  0
ARC
  5
1BB
330
1F
100
AcDbEntity
  8
0
  6
Continuous
 62
     7
370
    25
100
AcDbCircle
 10
91.9476426471
 20
-51.4841735852
 30
0.0
 40
28.59752755146606
100
AcDbArc
 50
76.0670186277
 51
163.2894250224
  0
ARC
  5
1BC
330
1F
100
AcDbEntity
  8
0
  6
Continuous
 62
     7
370
    25
100
AcDbCircle
 10
91.9476426471
 20
-51.4841735852
 30
0.0
 40
31.59752755146623
100
AcDbArc
 50
141.3211854911
 51
163.2894250224
  0
ARC
  5
1BD
330
1F
100
AcDbEntity
  8
0
  6
Continuous
 62
     7
370
    25
100
AcDbCircle
 10
28.7948413337
 20
-27.761885136
 30
0.0
 40
7.365677028593034
100
AcDbArc
 50
308.6088313825
 51
325.678803743
  0
ARC
  5
1BE
330
1F
100
AcDbEntity
  8
0
  6
Continuous
 62
     7
370
    25
100
AcDbCircle
 10
28.7948413337
 20
-27.761885136
 30
0.0
 40
7.365677028595719
100
AcDbArc
 50
263.6088313825
 51
274.5925692154
  0
ARC
  5
1BF
330
1F
100
AcDbEntity
  8
0
  6
Continuous
 62
     7
370
    25
100
AcDbCircle
 10
28.7948413337
 20
-27.761885136
 30
0.0
 40
7.365677028593686
100
AcDbArc
 50
218.6088313825
 51
229.5924761698
  0
ARC
  5
1C0
330
1F
100
AcDbEntity
  8
0
  6
Continuous
 62
     7
370
    25
100
AcDbCircle
 10
28.7948413337
 20
-27.761885136
 30
0.0
 40
7.365677028593726
100
AcDbArc
 50
173.6088313825
 51
184.5924761698
  0
ARC
  5
1C1
330
1F
100
AcDbEntity
  8
0
  6
Continuous
 62
     7
370
    25
100
AcDbCircle
 10
28.7948413337
 20
-27.761885136
 30
0.0
 40
7.365677028594007
100
AcDbArc
 50
128.6088313825
 51
139.5924761698
  0
ARC
  5
1C2
330
1F
100
AcDbEntity
  8
0
  6
Continuous
 62
     7
370
    25
100
AcDbCircle
 10
28.7948413337
 20
-27.761885136
 30
0.0
 40
7.365677028592266
100
AcDbArc
 50
83.6088313825
 51
94.5924761698
  0
ARC
  5
1C3
330
1F
100
AcDbEntity
  8
0
  6
Continuous
 62
     7
370
    25
100
AcDbCircle
 10
28.7948413337
 20
-27.761885136
 30
0.0
 40
7.365677028594407
100
AcDbArc
 50
36.341965616
 51
49.5924761698
  0
ARC
  5
1C4
330
1F
100
AcDbEntity
  8
0
  6
Continuous
 62
     7
370
    25
100
AcDbCircle
 10
91.9476426471
 20
-51.4841735852
 30
0.0
 40
31.59752755146604
100
AcDbArc
 50
76.0670186277
 51
121.2257912747
  0
ARC
  5
1C5
330
1F
100
AcDbEntity
  8
0
  6
Continuous
 62
     7
370
    25
100
AcDbCircle
 10
7.8311021242
 20
-27.5509364172
 30
0.0
 40
7.365500000001131
100
AcDbArc
 50
62.903842715
 51
73.9035701112
  0
ARC
  5
1C6
330
1F
100
AcDbEntity
  8
0
  6
Continuous
 62
     7
370
    25
100
AcDbCircle
 10
7.8311021242
 20
-27.5509364172
 30
0.0
 40
7.365500000001143
100
AcDbArc
 50
17.903842715
 51
28.9036984749
  0
ARC
  5
1C7
330
1F
100
AcDbEntity
  8
0
  6
Continuous
 62
     7
370
    25
100
AcDbCircle
 10
7.8311021242
 20
-27.5509364172
 30
0.0
 40
7.365499999999685
100
AcDbArc
 50
332.903842715
 51
343.9035732196
  0
ARC
  5
1C8
330
1F
100
AcDbEntity
  8
0
  6
Continuous
 62
     7
370
    25
100
AcDbCircle
 10
7.8311021242
 20
-27.5509364172
 30
0.0
 40
7.365499999999557
100
AcDbArc
 50
287.903842715
 51
298.9035713822
  0
ARC
  5
1C9
330
1F
100
AcDbEntity
  8
0
  6
Continuous
 62
     7
370
    25
100
AcDbCircle
 10
7.8311021242
 20
-27.5509364172
 30
0.0
 40
7.365500000001257
100
AcDbArc
 50
242.903842715
 51
253.9036422013
  0
ARC
  5
1CA
330
1F
100
AcDbEntity
  8
0
  6
Continuous
 62
     7
370
    25
100
AcDbCircle
 10
-56.3028769369
 20
-51.4841735852
 30
0.0
 40
31.59752755146594
100
AcDbArc
 50
16.7105749776
 51
38.6788145089
  0
ARC
  5
1CB
330
1F
100
AcDbEntity
  8
0
  6
Continuous
 62
     7
370
    25
100
AcDbCircle
 10
-56.3028769369
 20
-51.4841735852
 30
0.0
 40
28.59752755146612
100
AcDbArc
 50
16.7105749776
 51
103.9329813723
  0
ARC
  5
1CC
330
1F
100
AcDbEntity
  8
0
  6
Continuous
 62
     7
370
    25
100
AcDbCircle
 10
-56.3028769369
 20
-51.4841735852
 30
0.0
 40
31.59752755146614
100
AcDbArc
 50
58.7742087252
 51
103.9329813723
  0
ARC
  5
1CD
330
1F
100
AcDbEntity
  8
0
  6
Continuous
 62
     7
370
    25
100
AcDbCircle
 10
7.8311021242
 20
-27.5509364172
 30
0.0
 40
7.365500000001368
100
AcDbArc
 50
107.903842715
 51
118.9036135626
  0
ARC
  5
1CE
330
1F
100
AcDbEntity
  8
0
  6
Continuous
 62
     7
370
    25
100
AcDbCircle
 10
113.776777122
 20
117.8625467731
 30
0.0
 40
3.999999999494475
100
AcDbArc
 50
224.9995641275
 51
314.999564142
  0
ARC
  5
1CF
330
1F
100
AcDbEntity
  8
0
  6
Continuous
 62
     7
370
    25
100
AcDbCircle
 10
149.1323782452
 20
153.2176099898
 30
0.0
 40
4.00000000000001
100
AcDbArc
 50
314.9995641347
 51
44.9995641419
  0
ARC
  5
1D0
330
1F
100
AcDbEntity
  8
0
  6
Continuous
 62
     7
370
    25
100
AcDbCircle
 10
113.7773081409
 20
188.5732180014
 30
0.0
 40
3.99999999999997
100
AcDbArc
 50
44.9995641419
 51
134.999564142
  0
ARC
  5
1D1
330
1F
100
AcDbEntity
  8
0
  6
Continuous
 62
     7
370
    25
100
AcDbCircle
 10
78.4217070177
 20
153.2181547854
 30
0.0
 40
4.00000000000004
100
AcDbArc
 50
134.9995641419
 51
224.999564142
  0
ARC
  5
1D2
330
1F
100
AcDbEntity
  8
0
  6
Continuous
 62
     7
370
    25
100
AcDbCircle
 10
-82.1062347251
 20
117.7566652519
 30
0.0
 40
3.999999999494473
100
AcDbArc
 50
224.9995641275
 51
314.999564142
  0
ARC
  5
1D3
330
1F
100
AcDbEntity
  8
0
  6
Continuous
 62
     7
370
    25
100
AcDbCircle
 10
-46.7506336019
 20
153.1117284686
 30
0.0
 40
3.999999999999915
100
AcDbArc
 50
314.9995641347
 51
44.9995641419
  0
ARC
  5
1D4
330
1F
100
AcDbEntity
  8
0
  6
Continuous
 62
     7
370
    25
100
AcDbCircle
 10
-82.1057037062
 20
188.4673364802
 30
0.0
 40
4.0
100
AcDbArc
 50
44.9995641419
 51
134.9995641419
  0
ARC
  5
1D5
330
1F
100
AcDbEntity
  8
0
  6
Continuous
 62
     7
370
    25
100
AcDbCircle
 10
-117.4613048294
 20
153.1122732642
 30
0.0
 40
4.000000000000091
100
AcDbArc
 50
134.999564142
 51
224.9995641419
  0
ARC
  5
1D6
330
1F
100
AcDbEntity
  8
0
  6
Continuous
 62
     7
370
    25
100
AcDbCircle
 10
27.4178656025
 20
-3.6883387208
 30
0.0
 40
7.365677028595083
100
AcDbArc
 50
128.6088313825
 51
139.5924761698
  0
ARC
  5
1D7
330
1F
100
AcDbEntity
  8
0
  6
Continuous
 62
     7
370
    25
100
AcDbCircle
 10
27.4178656025
 20
-3.6883387208
 30
0.0
 40
7.365677028593201
100
AcDbArc
 50
83.6088313825
 51
94.5924761698
  0
ARC
  5
1D8
330
1F
100
AcDbEntity
  8
0
  6
Continuous
 62
     7
370
    25
100
AcDbCircle
 10
27.4178656025
 20
-3.6883387208
 30
0.0
 40
7.365677028587337
100
AcDbArc
 50
36.341965616
 51
49.5924761698
  0
ARC
  5
1D9
330
1F
100
AcDbEntity
  8
0
  6
Continuous
 62
     7
370
    25
100
AcDbCircle
 10
73.0230693038
 20
-13.9165812958
 30
0.0
 40
6.292003817727694
100
AcDbArc
 50
32.1493649436
 51
90.0
  0
ARC
  5
1DA
330
1F
100
AcDbEntity
  8
0
  6
Continuous
 62
     7
370
    25
100
AcDbCircle
 10
27.4178656025
 20
-3.6883387208
 30
0.0
 40
7.365677028593637
100
AcDbArc
 50
308.6088313825
 51
325.678803743
  0
ARC
  5
1DB
330
1F
100
AcDbEntity
  8
0
  6
Continuous
 62
     7
370
    25
100
AcDbCircle
 10
27.4178656025
 20
-3.6883387208
 30
0.0
 40
7.365677028595044
100
AcDbArc
 50
263.6088313825
 51
274.5925692154
  0
ARC
  5
1DC
330
1F
100
AcDbEntity
  8
0
  6
Continuous
 62
     7
370
    25
100
AcDbCircle
 10
27.4178656025
 20
-3.6883387208
 30
0.0
 40
7.365677028593996
100
AcDbArc
 50
218.6088313825
 51
229.5924761698
  0
ARC
  5
1DD
330
1F
100
AcDbEntity
  8
0
  6
Continuous
 62
     7
370
    25
100
AcDbCircle
 10
27.4178656025
 20
-3.6883387208
 30
0.0
 40
7.365677028593978
100
AcDbArc
 50
173.6088313825
 51
184.5924761698
  0
ARC
  5
1DE
330
1F
100
AcDbEntity
  8
0
  6
Continuous
 62
     7
370
    25
100
AcDbCircle
 10
6.4541263929
 20
-3.4773900021
 30
0.0
 40
7.365500000000341
100
AcDbArc
 50
62.903842715
 51
73.9035701112
  0
ARC
  5
1DF
330
1F
100
AcDbEntity
  8
0
  6
Continuous
 62
     7
370
    25
100
AcDbCircle
 10
6.4541263929
 20
-3.4773900021
 30
0.0
 40
7.365499999999975
100
AcDbArc
 50
17.903842715
 51
28.9036984749
  0
ARC
  5
1E0
330
1F
100
AcDbEntity
  8
0
  6
Continuous
 62
     7
370
    25
100
AcDbCircle
 10
6.4541263929
 20
-3.4773900021
 30
0.0
 40
7.365500000000172
100
AcDbArc
 50
332.903842715
 51
343.9035732196
  0
ARC
  5
1E1
330
1F
100
AcDbEntity
  8
0
  6
Continuous
 62
     7
370
    25
100
AcDbCircle
 10
6.454126393
 20
-3.4773900021
 30
0.0
 40
7.365499999999361
100
AcDbArc
 50
287.903842715
 51
298.9035713822
  0
ARC
  5
1E2
330
1F
100
AcDbEntity
  8
0
  6
Continuous
 62
     7
370
    25
100
AcDbCircle
 10
6.454126393
 20
-3.4773900021
 30
0.0
 40
7.36550000000069
100
AcDbArc
 50
242.903842715
 51
253.9036422013
  0
ARC
  5
1E3
330
1F
100
AcDbEntity
  8
0
  6
Continuous
 62
     7
370
    25
100
AcDbCircle
 10
-40.1322550561
 20
-13.9165812958
 30
0.0
 40
6.292003817727741
100
AcDbArc
 50
90.0
 51
147.8506350564
  0
ARC
  5
1E4
330
1F
100
AcDbEntity
  8
0
  6
Continuous
 62
     7
370
    25
100
AcDbCircle
 10
6.4541263929
 20
-3.4773900021
 30
0.0
 40
7.365499999999429
100
AcDbArc
 50
107.903842715
 51
118.9036135626
  0
MTEXT
  5
1E6
330
1F
100
AcDbEntity
  8
0
  6
Continuous
 62
     7
100
AcDbMText
 10
-177.4613048294
 20
-44.2808841608
 30
0.0
 40
4.83362
 41
0.0
 71
     1
 72
     1
  1
Producto SOLIDWORKS Educational.
  7
SLDTEXTSTYLE0
 73
     1
 44
1.0
  0
MTEXT
  5
1E7
330
1F
100
AcDbEntity
  8
0
  6
Continuous
 62
     7
100
AcDbMText
 10
-177.4613048294
 20
-51.5313141608
 30
0.0
 40
4.83362
 41
0.0
 71
     1
 72
     1
  1
Solo para uso en la enseanza.
  7
SLDTEXTSTYLE0
 73
     1
 44
1.0
  0
ENDSEC
  0
SECTION
  2
OBJECTS
  0
DICTIONARY
  5
C
330
0
100
AcDbDictionary
281
     1
  3
ACAD_GROUP
350
D
  3
ACAD_LAYOUT
350
1A
  3
ACAD_MLINESTYLE
350
17
  3
ACAD_PLOTSETTINGS
350
19
  3
ACAD_PLOTSTYLENAME
350
E
  3
ACAD_SCALELIST
350
47
  3
DWGPROPS
350
1E8
  0
DICTIONARY
  5
D
102
{ACAD_REACTORS
330
C
102
}
330
C
100
AcDbDictionary
281
     1
  0
DICTIONARY
  5
1A
102
{ACAD_REACTORS
330
C
102
}
330
C
100
AcDbDictionary
281
     1
  3
Layout1
350
1E
  3
Layout2
350
26
  3
Model
350
22
  0
DICTIONARY
  5
17
102
{ACAD_REACTORS
330
C
102
}
330
C
100
AcDbDictionary
281
     1
  3
Standard
350
18
  0
DICTIONARY
  5
19
102
{ACAD_REACTORS
330
C
102
}
330
C
100
AcDbDictionary
281
     1
  0
ACDBDICTIONARYWDFLT
  5
E
102
{ACAD_REACTORS
330
C
102
}
330
C
100
AcDbDictionary
281
     1
  3
Normal
350
F
100
AcDbDictionaryWithDefault
340
F
  0
DICTIONARY
  5
47
102
{ACAD_REACTORS
330
C
102
}
330
C
100
AcDbDictionary
281
     1
  3
A0
350
48
  3
A1
350
49
  3
A2
350
4A
  3
A3
350
4B
  3
A4
350
4C
  3
A5
350
4D
  3
A6
350
4E
  3
A7
350
4F
  3
A8
350
50
  3
A9
350
51
  3
B0
350
52
  3
B1
350
53
  3
B2
350
54
  3
B3
350
55
  3
B4
350
56
  3
B5
350
57
  3
B6
350
58
  0
XRECORD
  5
1E8
102
{ACAD_REACTORS
330
C
102
}
330
C
100
AcDbXrecord
280
     1
  1
DWGPROPS COOKIE
  2

  3

  4

  6

  7

  8
Escuela
  9

300
=
301
=
302
=
303
=
304
=
305
=
306
=
307
=
308
=
309
=
 40
0.0
 41
2460592.706997604
 42
2460592.707083877
  1

 90
        0
  0
LAYOUT
  5
1E
102
{ACAD_REACTORS
330
1A
102
}
330
1A
100
AcDbPlotSettings
  1

  2
none_device
  4

  6

 40
0.0
 41
0.0
 42
0.0
 43
0.0
 44
0.0
 45
0.0
 46
0.0
 47
0.0
 48
0.0
 49
0.0
140
0.0
141
0.0
142
1.0
143
1.0
 70
   688
 72
     1
 73
     0
 74
     5
  7

 75
    16
147
1.0
148
0.0
149
0.0
100
AcDbLayout
  1
Layout1
 70
     1
 71
     1
 10
0.0
 20
0.0
 11
420.0
 21
297.0
 12
0.0
 22
0.0
 32
0.0
 14
1.0000000000E+20
 24
1.0000000000E+20
 34
1.0000000000E+20
 15
-1.0000000000E+20
 25
-1.0000000000E+20
 35
-1.0000000000E+20
146
0.0
 13
0.0
 23
0.0
 33
0.0
 16
1.0
 26
0.0
 36
0.0
 17
0.0
 27
1.0
 37
0.0
 76
     0
330
1B
  0
LAYOUT
  5
26
102
{ACAD_REACTORS
330
1A
102
}
330
1A
100
AcDbPlotSettings
  1

  2
none_device
  4

  6

 40
0.0
 41
0.0
 42
0.0
 43
0.0
 44
0.0
 45
0.0
 46
0.0
 47
0.0
 48
0.0
 49
0.0
140
0.0
141
0.0
142
1.0
143
1.0
 70
   688
 72
     1
 73
     0
 74
     5
  7

 75
    16
147
1.0
148
0.0
149
0.0
100
AcDbLayout
  1
Layout2
 70
     1
 71
     2
 10
0.0
 20
0.0
 11
0.0
 21
0.0
 12
0.0
 22
0.0
 32
0.0
 14
0.0
 24
0.0
 34
0.0
 15
0.0
 25
0.0
 35
0.0
146
0.0
 13
0.0
 23
0.0
 33
0.0
 16
1.0
 26
0.0
 36
0.0
 17
0.0
 27
1.0
 37
0.0
 76
     0
330
23
  0
LAYOUT
  5
22
102
{ACAD_REACTORS
330
1A
102
}
330
1A
100
AcDbPlotSettings
  1

  2
none_device
  4
ANSI_A_(11.00_x_8.50_Inches)
  6

 40
6.35
 41
19.05
 42
6.35000508
 43
19.05000254
 44
279.4
 45
215.9
 46
122.0196700195
 47
33.337556338
 48
0.0
 49
0.0
140
0.0
141
0.0
142
0.0281690937
143
1.0
 70
  1696
 72
     0
 73
     0
 74
     0
  7

 75
     0
147
0.0179189148
148
-1300.4909072572
149
0.0
100
AcDbLayout
  1
Model
 70
     1
 71
     0
 10
0.0
 20
0.0
 11
420.0
 21
297.0
 12
0.0
 22
0.0
 32
0.0
 14
-177.4613048294
 24
-43.2613177691
 34
0.0
 15
209.132603089
 25
198.5732180014
 35
0.0
146
0.0
 13
0.0
 23
0.0
 33
0.0
 16
1.0
 26
0.0
 36
0.0
 17
0.0
 27
1.0
 37
0.0
 76
     0
330
1F
331
29
  0
MLINESTYLE
  5
18
102
{ACAD_REACTORS
330
17
102
}
330
17
100
AcDbMlineStyle
  2
Standard
 70
     0
  3

 62
   256
 51
90.0
 52
90.0
 71
     2
 49
0.5
 62
   256
  6
BYLAYER
 49
-0.5
 62
   256
  6
BYLAYER
  0
ACDBPLACEHOLDER
  5
F
102
{ACAD_REACTORS
330
E
102
}
330
E
  0
SCALE
  5
48
102
{ACAD_REACTORS
330
47
102
}
330
47
100
AcDbScale
 70
     0
300
1:1
140
1.0
141
1.0
290
     1
  0
SCALE
  5
49
102
{ACAD_REACTORS
330
47
102
}
330
47
100
AcDbScale
 70
     0
300
1:2
140
1.0
141
2.0
290
     0
  0
SCALE
  5
4A
102
{ACAD_REACTORS
330
47
102
}
330
47
100
AcDbScale
 70
     0
300
1:4
140
1.0
141
4.0
290
     0
  0
SCALE
  5
4B
102
{ACAD_REACTORS
330
47
102
}
330
47
100
AcDbScale
 70
     0
300
1:5
140
1.0
141
5.0
290
     0
  0
SCALE
  5
4C
102
{ACAD_REACTORS
330
47
102
}
330
47
100
AcDbScale
 70
     0
300
1:8
140
1.0
141
8.0
290
     0
  0
SCALE
  5
4D
102
{ACAD_REACTORS
330
47
102
}
330
47
100
AcDbScale
 70
     0
300
1:10
140
1.0
141
10.0
290
     0
  0
SCALE
  5
4E
102
{ACAD_REACTORS
330
47
102
}
330
47
100
AcDbScale
 70
     0
300
1:16
140
1.0
141
16.0
290
     0
  0
SCALE
  5
4F
102
{ACAD_REACTORS
330
47
102
}
330
47
100
AcDbScale
 70
     0
300
1:20
140
1.0
141
20.0
290
     0
  0
SCALE
  5
50
102
{ACAD_REACTORS
330
47
102
}
330
47
100
AcDbScale
 70
     0
300
1:30
140
1.0
141
30.0
290
     0
  0
SCALE
  5
51
102
{ACAD_REACTORS
330
47
102
}
330
47
100
AcDbScale
 70
     0
300
1:40
140
1.0
141
40.0
290
     0
  0
SCALE
  5
52
102
{ACAD_REACTORS
330
47
102
}
330
47
100
AcDbScale
 70
     0
300
1:50
140
1.0
141
50.0
290
     0
  0
SCALE
  5
53
102
{ACAD_REACTORS
330
47
102
}
330
47
100
AcDbScale
 70
     0
300
1:100
140
1.0
141
100.0
290
     0
  0
SCALE
  5
54
102
{ACAD_REACTORS
330
47
102
}
330
47
100
AcDbScale
 70
     0
300
2:1
140
2.0
141
1.0
290
     0
  0
SCALE
  5
55
102
{ACAD_REACTORS
330
47
102
}
330
47
100
AcDbScale
 70
     0
300
4:1
140
4.0
141
1.0
290
     0
  0
SCALE
  5
56
102
{ACAD_REACTORS
330
47
102
}
330
47
100
AcDbScale
 70
     0
300
8:1
140
8.0
141
1.0
290
     0
  0
SCALE
  5
57
102
{ACAD_REACTORS
330
47
102
}
330
47
100
AcDbScale
 70
     0
300
10:1
140
10.0
141
1.0
290
     0
  0
SCALE
  5
58
102
{ACAD_REACTORS
330
47
102
}
330
47
100
AcDbScale
 70
     0
300
100:1
140
100.0
141
1.0
290
     0
  0
ENDSEC
  0
EOF
